<svg xmlns="http://www.w3.org/2000/svg" viewBox="0 0 400 300" width="400" height="300"><title>A bowl of romaine with sliced chicken, croutons and shaved Parmesan</title><rect width="400" height="300" fill="#e8e1d2"/><ellipse cx="189" cy="158" rx="115" ry="115" fill="#000" opacity=".09"/><circle cx="185" cy="150" r="115" fill="#fbfaf6"/><circle cx="185" cy="150" r="96.6" fill="#e6e1d6"/><circle cx="185" cy="150" r="92" fill="#9fd46e"/><ellipse cx="183.6" cy="178" rx="16" ry="7.2" fill="#9fd46e" transform="rotate(161 183.6 178)"/><ellipse cx="228.3" cy="155.9" rx="16" ry="7.2" fill="#9fd46e" transform="rotate(86 228.3 155.9)"/><ellipse cx="144.1" cy="148.6" rx="16" ry="7.2" fill="#7cc05a" transform="rotate(92 144.1 148.6)"/><ellipse cx="142.3" cy="129.6" rx="16" ry="7.2" fill="#9fd46e" transform="rotate(122 142.3 129.6)"/><ellipse cx="261.2" cy="134.9" rx="16" ry="7.2" fill="#9fd46e" transform="rotate(99 261.2 134.9)"/><ellipse cx="263.6" cy="155.7" rx="16" ry="7.2" fill="#9fd46e" transform="rotate(139 263.6 155.7)"/><ellipse cx="177.8" cy="203.4" rx="16" ry="7.2" fill="#7cc05a" transform="rotate(112 177.8 203.4)"/><ellipse cx="245.2" cy="135.8" rx="16" ry="7.2" fill="#9fd46e" transform="rotate(67 245.2 135.8)"/><ellipse cx="190.7" cy="189.4" rx="16" ry="7.2" fill="#7cc05a" transform="rotate(4 190.7 189.4)"/><ellipse cx="117.6" cy="149.3" rx="16" ry="7.2" fill="#9fd46e" transform="rotate(117 117.6 149.3)"/><ellipse cx="226.1" cy="104.5" rx="16" ry="7.2" fill="#7cc05a" transform="rotate(5 226.1 104.5)"/><ellipse cx="109.5" cy="134.3" rx="16" ry="7.2" fill="#9fd46e" transform="rotate(133 109.5 134.3)"/><ellipse cx="152.7" cy="78.1" rx="16" ry="7.2" fill="#7cc05a" transform="rotate(144 152.7 78.1)"/><ellipse cx="135.4" cy="206" rx="16" ry="7.2" fill="#9fd46e" transform="rotate(50 135.4 206)"/><ellipse cx="206.4" cy="134.5" rx="16" ry="7.2" fill="#9fd46e" transform="rotate(104 206.4 134.5)"/><ellipse cx="259.7" cy="161.4" rx="16" ry="7.2" fill="#7cc05a" transform="rotate(72 259.7 161.4)"/><ellipse cx="178.3" cy="82.9" rx="16" ry="7.2" fill="#7cc05a" transform="rotate(101 178.3 82.9)"/><ellipse cx="264.4" cy="148.7" rx="16" ry="7.2" fill="#7cc05a" transform="rotate(136 264.4 148.7)"/><rect x="153.6" y="170.4" width="15" height="15" rx="2" fill="#c98a3e" transform="rotate(114 161.1 177.9)"/><rect x="156.1" y="172.9" width="10" height="10" rx="2" fill="#e2ac5c" transform="rotate(114 161.1 177.9)"/><rect x="195.4" y="177.2" width="15" height="15" rx="2" fill="#c98a3e" transform="rotate(32 202.9 184.7)"/><rect x="197.9" y="179.7" width="10" height="10" rx="2" fill="#e2ac5c" transform="rotate(32 202.9 184.7)"/><rect x="167.9" y="215.5" width="15" height="15" rx="2" fill="#c98a3e" transform="rotate(127 175.4 223)"/><rect x="170.4" y="218" width="10" height="10" rx="2" fill="#e2ac5c" transform="rotate(127 175.4 223)"/><rect x="114.9" y="192.7" width="15" height="15" rx="2" fill="#c98a3e" transform="rotate(125 122.4 200.2)"/><rect x="117.4" y="195.2" width="10" height="10" rx="2" fill="#e2ac5c" transform="rotate(125 122.4 200.2)"/><rect x="159.7" y="208.8" width="15" height="15" rx="2" fill="#c98a3e" transform="rotate(135 167.2 216.3)"/><rect x="162.2" y="211.3" width="10" height="10" rx="2" fill="#e2ac5c" transform="rotate(135 167.2 216.3)"/><rect x="174.1" y="159.5" width="15" height="15" rx="2" fill="#c98a3e" transform="rotate(103 181.6 167)"/><rect x="176.6" y="162" width="10" height="10" rx="2" fill="#e2ac5c" transform="rotate(103 181.6 167)"/><rect x="234.6" y="107.4" width="15" height="15" rx="2" fill="#c98a3e" transform="rotate(175 242.1 114.9)"/><rect x="237.1" y="109.9" width="10" height="10" rx="2" fill="#e2ac5c" transform="rotate(175 242.1 114.9)"/><rect x="141.1" y="167.3" width="15" height="15" rx="2" fill="#c98a3e" transform="rotate(105 148.6 174.8)"/><rect x="143.6" y="169.8" width="10" height="10" rx="2" fill="#e2ac5c" transform="rotate(105 148.6 174.8)"/><rect x="232.5" y="191.4" width="15" height="15" rx="2" fill="#c98a3e" transform="rotate(77 240 198.9)"/><rect x="235" y="193.9" width="10" height="10" rx="2" fill="#e2ac5c" transform="rotate(77 240 198.9)"/><rect x="116.2" y="110.1" width="15" height="15" rx="2" fill="#c98a3e" transform="rotate(147 123.7 117.6)"/><rect x="118.7" y="112.6" width="10" height="10" rx="2" fill="#e2ac5c" transform="rotate(147 123.7 117.6)"/><rect x="123.4" y="143.6" width="12" height="12" rx="2" fill="#c98a3e" transform="rotate(25 129.4 149.6)"/><rect x="125.4" y="145.6" width="8" height="8" rx="2" fill="#e6b666" transform="rotate(25 129.4 149.6)"/><rect x="247.4" y="189.9" width="12" height="12" rx="2" fill="#c98a3e" transform="rotate(113 253.4 195.9)"/><rect x="249.4" y="191.9" width="8" height="8" rx="2" fill="#e6b666" transform="rotate(113 253.4 195.9)"/><rect x="178.8" y="65.2" width="12" height="12" rx="2" fill="#c98a3e" transform="rotate(89 184.8 71.2)"/><rect x="180.8" y="67.2" width="8" height="8" rx="2" fill="#e6b666" transform="rotate(89 184.8 71.2)"/><rect x="206.6" y="81.3" width="12" height="12" rx="2" fill="#c98a3e" transform="rotate(70 212.6 87.3)"/><rect x="208.6" y="83.3" width="8" height="8" rx="2" fill="#e6b666" transform="rotate(70 212.6 87.3)"/><rect x="249.4" y="141.2" width="12" height="12" rx="2" fill="#c98a3e" transform="rotate(37 255.4 147.2)"/><rect x="251.4" y="143.2" width="8" height="8" rx="2" fill="#e6b666" transform="rotate(37 255.4 147.2)"/><rect x="207.8" y="136.2" width="12" height="12" rx="2" fill="#c98a3e" transform="rotate(141 213.8 142.2)"/><rect x="209.8" y="138.2" width="8" height="8" rx="2" fill="#e6b666" transform="rotate(141 213.8 142.2)"/><rect x="207.7" y="114.6" width="12" height="12" rx="2" fill="#c98a3e" transform="rotate(106 213.7 120.6)"/><rect x="209.7" y="116.6" width="8" height="8" rx="2" fill="#e6b666" transform="rotate(106 213.7 120.6)"/><rect x="148.4" y="194.2" width="12" height="12" rx="2" fill="#c98a3e" transform="rotate(123 154.4 200.2)"/><rect x="150.4" y="196.2" width="8" height="8" rx="2" fill="#e6b666" transform="rotate(123 154.4 200.2)"/><rect x="241" y="150.9" width="12" height="12" rx="2" fill="#c98a3e" transform="rotate(32 247 156.9)"/><rect x="243" y="152.9" width="8" height="8" rx="2" fill="#e6b666" transform="rotate(32 247 156.9)"/><rect x="144.6" y="83.8" width="12" height="12" rx="2" fill="#c98a3e" transform="rotate(139 150.6 89.8)"/><rect x="146.6" y="85.8" width="8" height="8" rx="2" fill="#e6b666" transform="rotate(139 150.6 89.8)"/><rect x="217.7" y="183.8" width="12" height="3.5" rx="3" fill="#fbf1d4" transform="rotate(76 217.7 186.8)"/><rect x="171.7" y="157" width="12" height="3.5" rx="3" fill="#fbf1d4" transform="rotate(36 171.7 160)"/><rect x="137.6" y="147.2" width="12" height="3.5" rx="3" fill="#fbf1d4" transform="rotate(58 137.6 150.2)"/><rect x="141.4" y="155.5" width="12" height="3.5" rx="3" fill="#fbf1d4" transform="rotate(36 141.4 158.5)"/><rect x="166.2" y="221.2" width="12" height="3.5" rx="3" fill="#fbf1d4" transform="rotate(126 166.2 224.2)"/><rect x="172.5" y="72.2" width="12" height="3.5" rx="3" fill="#fbf1d4" transform="rotate(15 172.5 75.2)"/><rect x="196.1" y="121.3" width="12" height="3.5" rx="3" fill="#fbf1d4" transform="rotate(61 196.1 124.3)"/><rect x="243.9" y="159.2" width="12" height="3.5" rx="3" fill="#fbf1d4" transform="rotate(106 243.9 162.2)"/><rect x="171.1" y="178.7" width="12" height="3.5" rx="3" fill="#fbf1d4" transform="rotate(168 171.1 181.7)"/><rect x="171.7" y="86.3" width="12" height="3.5" rx="3" fill="#fbf1d4" transform="rotate(3 171.7 89.3)"/><rect x="175.4" y="155.1" width="12" height="3.5" rx="3" fill="#fbf1d4" transform="rotate(35 175.4 158.1)"/><rect x="184" y="223.7" width="12" height="3.5" rx="3" fill="#fbf1d4" transform="rotate(111 184 226.7)"/><g transform="translate(335 235) rotate(150)"><path d="M-26 0A26 26 0 0 0 26 0Z" fill="#f4cf3f"/><path d="M-20.8 0A20.8 20.8 0 0 0 20.8 0Z" fill="#fbe68b"/></g></svg>
