<svg xmlns="http://www.w3.org/2000/svg" viewBox="0 0 400 300" width="400" height="300"><title>A bowl of rice porridge with ginger, green onion and a drizzle of soy</title><rect width="400" height="300" fill="#e8e1d2"/><ellipse cx="189" cy="158" rx="115" ry="115" fill="#000" opacity=".09"/><circle cx="185" cy="150" r="115" fill="#fbfaf6"/><circle cx="185" cy="150" r="96.6" fill="#e6e1d6"/><circle cx="185" cy="150" r="92" fill="#f6f0de"/><ellipse cx="135.4" cy="126.8" rx="4.2" ry="2" fill="#fffaf0" transform="rotate(132 135.4 126.8)"/><ellipse cx="124" cy="102.2" rx="4.2" ry="2" fill="#fffaf0" transform="rotate(66 124 102.2)"/><ellipse cx="259.4" cy="132.6" rx="4.2" ry="2" fill="#fffaf0" transform="rotate(75 259.4 132.6)"/><ellipse cx="230.6" cy="137.5" rx="4.2" ry="2" fill="#fffaf0" transform="rotate(59 230.6 137.5)"/><ellipse cx="215.1" cy="138.2" rx="4.2" ry="2" fill="#fffaf0" transform="rotate(157 215.1 138.2)"/><ellipse cx="190" cy="67.5" rx="4.2" ry="2" fill="#fffaf0" transform="rotate(74 190 67.5)"/><ellipse cx="256.9" cy="181.9" rx="4.2" ry="2" fill="#fffaf0" transform="rotate(8 256.9 181.9)"/><ellipse cx="116.8" cy="147.2" rx="4.2" ry="2" fill="#fffaf0" transform="rotate(42 116.8 147.2)"/><ellipse cx="207.7" cy="86.7" rx="4.2" ry="2" fill="#fffaf0" transform="rotate(139 207.7 86.7)"/><ellipse cx="179.5" cy="191.1" rx="4.2" ry="2" fill="#fffaf0" transform="rotate(44 179.5 191.1)"/><ellipse cx="205.8" cy="105.7" rx="4.2" ry="2" fill="#fffaf0" transform="rotate(27 205.8 105.7)"/><ellipse cx="205.8" cy="172.9" rx="4.2" ry="2" fill="#fffaf0" transform="rotate(65 205.8 172.9)"/><ellipse cx="159.6" cy="156.5" rx="4.2" ry="2" fill="#fffaf0" transform="rotate(154 159.6 156.5)"/><ellipse cx="226.6" cy="113.1" rx="4.2" ry="2" fill="#fffaf0" transform="rotate(44 226.6 113.1)"/><ellipse cx="243.7" cy="149.1" rx="4.2" ry="2" fill="#fffaf0" transform="rotate(52 243.7 149.1)"/><ellipse cx="193.2" cy="127.5" rx="4.2" ry="2" fill="#fffaf0" transform="rotate(139 193.2 127.5)"/><ellipse cx="171.7" cy="156.1" rx="4.2" ry="2" fill="#fffaf0" transform="rotate(155 171.7 156.1)"/><ellipse cx="191.3" cy="100.5" rx="4.2" ry="2" fill="#fffaf0" transform="rotate(84 191.3 100.5)"/><ellipse cx="222.1" cy="136.7" rx="4.2" ry="2" fill="#fffaf0" transform="rotate(133 222.1 136.7)"/><ellipse cx="178.8" cy="193.5" rx="4.2" ry="2" fill="#fffaf0" transform="rotate(27 178.8 193.5)"/><ellipse cx="132.2" cy="106.3" rx="4.2" ry="2" fill="#fffaf0" transform="rotate(126 132.2 106.3)"/><ellipse cx="256.6" cy="151.7" rx="4.2" ry="2" fill="#fffaf0" transform="rotate(121 256.6 151.7)"/><ellipse cx="157" cy="173.4" rx="4.2" ry="2" fill="#fffaf0" transform="rotate(124 157 173.4)"/><ellipse cx="116.8" cy="125.2" rx="4.2" ry="2" fill="#fffaf0" transform="rotate(98 116.8 125.2)"/><ellipse cx="154.2" cy="123.9" rx="4.2" ry="2" fill="#fffaf0" transform="rotate(120 154.2 123.9)"/><ellipse cx="136.6" cy="203.2" rx="4.2" ry="2" fill="#fffaf0" transform="rotate(32 136.6 203.2)"/><ellipse cx="169.2" cy="179.3" rx="4.2" ry="2" fill="#fffaf0" transform="rotate(101 169.2 179.3)"/><ellipse cx="114.6" cy="189.2" rx="4.2" ry="2" fill="#fffaf0" transform="rotate(50 114.6 189.2)"/><ellipse cx="248" cy="192.5" rx="4.2" ry="2" fill="#fffaf0" transform="rotate(172 248 192.5)"/><ellipse cx="175.7" cy="119.2" rx="4.2" ry="2" fill="#fffaf0" transform="rotate(105 175.7 119.2)"/><ellipse cx="224" cy="146.8" rx="4.2" ry="2" fill="#fffaf0" transform="rotate(116 224 146.8)"/><ellipse cx="203.1" cy="129.6" rx="4.2" ry="2" fill="#fffaf0" transform="rotate(1 203.1 129.6)"/><ellipse cx="132.3" cy="203.6" rx="4.2" ry="2" fill="#fffaf0" transform="rotate(3 132.3 203.6)"/><ellipse cx="185.4" cy="119.7" rx="4.2" ry="2" fill="#fffaf0" transform="rotate(144 185.4 119.7)"/><ellipse cx="133.4" cy="91.4" rx="4.2" ry="2" fill="#fffaf0" transform="rotate(140 133.4 91.4)"/><ellipse cx="212.9" cy="85.4" rx="4.2" ry="2" fill="#fffaf0" transform="rotate(69 212.9 85.4)"/><ellipse cx="206.1" cy="138.6" rx="4.2" ry="2" fill="#fffaf0" transform="rotate(69 206.1 138.6)"/><ellipse cx="208.8" cy="133.6" rx="4.2" ry="2" fill="#fffaf0" transform="rotate(131 208.8 133.6)"/><ellipse cx="190.8" cy="134.3" rx="4.2" ry="2" fill="#fffaf0" transform="rotate(144 190.8 134.3)"/><ellipse cx="200.8" cy="166" rx="4.2" ry="2" fill="#fffaf0" transform="rotate(87 200.8 166)"/><ellipse cx="158.8" cy="113.2" rx="4.2" ry="2" fill="#fffaf0" transform="rotate(59 158.8 113.2)"/><ellipse cx="225.9" cy="85.3" rx="4.2" ry="2" fill="#fffaf0" transform="rotate(119 225.9 85.3)"/><ellipse cx="180.2" cy="160.4" rx="4.2" ry="2" fill="#fffaf0" transform="rotate(51 180.2 160.4)"/><ellipse cx="256.7" cy="115" rx="4.2" ry="2" fill="#fffaf0" transform="rotate(126 256.7 115)"/><ellipse cx="124.4" cy="107.4" rx="4.2" ry="2" fill="#fffaf0" transform="rotate(71 124.4 107.4)"/><ellipse cx="241.2" cy="125.1" rx="4.2" ry="2" fill="#fffaf0" transform="rotate(132 241.2 125.1)"/><ellipse cx="175.5" cy="97" rx="4.2" ry="2" fill="#fffaf0" transform="rotate(116 175.5 97)"/><ellipse cx="174.4" cy="76.9" rx="4.2" ry="2" fill="#fffaf0" transform="rotate(95 174.4 76.9)"/><ellipse cx="124.5" cy="120" rx="4.2" ry="2" fill="#fffaf0" transform="rotate(17 124.5 120)"/><ellipse cx="227.3" cy="144" rx="4.2" ry="2" fill="#fffaf0" transform="rotate(78 227.3 144)"/><rect x="140.4" y="188.8" width="18" height="6" rx="3" fill="#e8c98a" transform="rotate(137 140.4 191.8)"/><rect x="150.7" y="171.5" width="18" height="6" rx="3" fill="#e8c98a" transform="rotate(162 150.7 174.5)"/><rect x="224.6" y="189.8" width="18" height="6" rx="3" fill="#e8c98a" transform="rotate(16 224.6 192.8)"/><rect x="217.8" y="81.3" width="18" height="6" rx="3" fill="#e8c98a" transform="rotate(135 217.8 84.3)"/><rect x="221.7" y="165.4" width="18" height="6" rx="3" fill="#e8c98a" transform="rotate(158 221.7 168.4)"/><rect x="127.8" y="90.7" width="18" height="6" rx="3" fill="#e8c98a" transform="rotate(150 127.8 93.7)"/><rect x="253.2" y="138.8" width="18" height="6" rx="3" fill="#e8c98a" transform="rotate(22 253.2 141.8)"/><rect x="178.4" y="199.7" width="18" height="6" rx="3" fill="#e8c98a" transform="rotate(5 178.4 202.7)"/><rect x="162.8" y="147.1" width="18" height="6" rx="3" fill="#e8c98a" transform="rotate(85 162.8 150.1)"/><rect x="234.5" y="145.2" width="18" height="6" rx="3" fill="#e8c98a" transform="rotate(9 234.5 148.2)"/><circle cx="178.6" cy="152.6" r="4" fill="none" stroke="#5aa54a" stroke-width="2.5"/><circle cx="195" cy="104.6" r="4" fill="none" stroke="#5aa54a" stroke-width="2.5"/><circle cx="243.3" cy="133.7" r="4" fill="none" stroke="#5aa54a" stroke-width="2.5"/><circle cx="239.8" cy="166.5" r="4" fill="none" stroke="#5aa54a" stroke-width="2.5"/><circle cx="190.8" cy="215.2" r="4" fill="none" stroke="#5aa54a" stroke-width="2.5"/><circle cx="171.3" cy="213.5" r="4" fill="none" stroke="#5aa54a" stroke-width="2.5"/><circle cx="222" cy="76" r="4" fill="none" stroke="#5aa54a" stroke-width="2.5"/><circle cx="180.4" cy="182" r="4" fill="none" stroke="#5aa54a" stroke-width="2.5"/><circle cx="167.6" cy="125.3" r="4" fill="none" stroke="#5aa54a" stroke-width="2.5"/><circle cx="193.8" cy="199.1" r="4" fill="none" stroke="#5aa54a" stroke-width="2.5"/><circle cx="151.7" cy="87.1" r="4" fill="none" stroke="#5aa54a" stroke-width="2.5"/><circle cx="243.3" cy="146.7" r="4" fill="none" stroke="#5aa54a" stroke-width="2.5"/><circle cx="205.2" cy="121.5" r="4" fill="none" stroke="#5aa54a" stroke-width="2.5"/><circle cx="232.3" cy="173.4" r="4" fill="none" stroke="#5aa54a" stroke-width="2.5"/><circle cx="149.3" cy="115.3" r="4" fill="none" stroke="#5aa54a" stroke-width="2.5"/><circle cx="196.4" cy="149.4" r="4" fill="none" stroke="#5aa54a" stroke-width="2.5"/><circle cx="146.6" cy="98.5" r="2" fill="#6b3a24"/><circle cx="226.7" cy="134.4" r="2" fill="#6b3a24"/><circle cx="204.9" cy="187.1" r="2" fill="#6b3a24"/><circle cx="137" cy="174.1" r="2" fill="#6b3a24"/><circle cx="192.6" cy="87.2" r="2" fill="#6b3a24"/><circle cx="179.6" cy="81" r="2" fill="#6b3a24"/><circle cx="193.9" cy="85.5" r="2" fill="#6b3a24"/><circle cx="218.9" cy="130.6" r="2" fill="#6b3a24"/><circle cx="229.3" cy="144.8" r="2" fill="#6b3a24"/><circle cx="220.1" cy="200.8" r="2" fill="#6b3a24"/><ellipse cx="339" cy="238" rx="34" ry="34" fill="#000" opacity=".09"/><circle cx="335" cy="230" r="34" fill="#fbfaf6"/><circle cx="335" cy="230" r="28.6" fill="#e6e1d6"/><circle cx="335" cy="230" r="27.2" fill="#3a2418"/></svg>
