<svg xmlns="http://www.w3.org/2000/svg" viewBox="0 0 400 300" width="400" height="300"><title>A bowl of smashed cucumbers in a glossy garlic chili dressing</title><rect width="400" height="300" fill="#e2ecd5"/><ellipse cx="189" cy="158" rx="115" ry="115" fill="#000" opacity=".09"/><circle cx="185" cy="150" r="115" fill="#fbfaf6"/><circle cx="185" cy="150" r="96.6" fill="#e6e1d6"/><circle cx="185" cy="150" r="92" fill="#3a5a2e"/><rect x="187.8" y="68" width="14" height="14" rx="2" fill="#bfdc8a" transform="rotate(76 194.8 75)"/><rect x="140" y="118.8" width="14" height="14" rx="2" fill="#bfdc8a" transform="rotate(11 147 125.8)"/><rect x="148.3" y="143.3" width="14" height="14" rx="2" fill="#bfdc8a" transform="rotate(40 155.3 150.3)"/><rect x="175.1" y="163.4" width="14" height="14" rx="2" fill="#bfdc8a" transform="rotate(58 182.1 170.4)"/><rect x="206.6" y="218.2" width="14" height="14" rx="2" fill="#bfdc8a" transform="rotate(143 213.6 225.2)"/><rect x="150.7" y="164.4" width="14" height="14" rx="2" fill="#bfdc8a" transform="rotate(58 157.7 171.4)"/><rect x="148.8" y="113.2" width="14" height="14" rx="2" fill="#bfdc8a" transform="rotate(111 155.8 120.2)"/><rect x="149.7" y="200.6" width="14" height="14" rx="2" fill="#bfdc8a" transform="rotate(73 156.7 207.6)"/><rect x="253.7" y="113.7" width="14" height="14" rx="2" fill="#bfdc8a" transform="rotate(174 260.7 120.7)"/><rect x="212.7" y="175.8" width="14" height="14" rx="2" fill="#bfdc8a" transform="rotate(172 219.7 182.8)"/><rect x="207.5" y="174.4" width="14" height="14" rx="2" fill="#bfdc8a" transform="rotate(80 214.5 181.4)"/><rect x="236" y="190.3" width="14" height="14" rx="2" fill="#bfdc8a" transform="rotate(141 243 197.3)"/><rect x="212" y="196.1" width="14" height="14" rx="2" fill="#bfdc8a" transform="rotate(92 219 203.1)"/><rect x="178.1" y="63.2" width="14" height="14" rx="2" fill="#bfdc8a" transform="rotate(168 185.1 70.2)"/><rect x="190.2" y="214.7" width="14" height="14" rx="2" fill="#bfdc8a" transform="rotate(143 197.2 221.7)"/><rect x="241.7" y="125.19999999999999" width="14" height="14" rx="2" fill="#bfdc8a" transform="rotate(176 248.7 132.2)"/><rect x="210.5" y="196.3" width="14" height="14" rx="2" fill="#bfdc8a" transform="rotate(109 217.5 203.3)"/><rect x="201" y="108.6" width="14" height="14" rx="2" fill="#bfdc8a" transform="rotate(54 208 115.6)"/><circle cx="195.2" cy="139.7" r="2" fill="#c0392b"/><circle cx="183.6" cy="161.5" r="2" fill="#c0392b"/><circle cx="141.1" cy="106.6" r="2" fill="#c0392b"/><circle cx="135.2" cy="102.8" r="2" fill="#c0392b"/><circle cx="145.6" cy="169.7" r="2" fill="#c0392b"/><circle cx="203.3" cy="111.2" r="2" fill="#c0392b"/><circle cx="171.4" cy="144.8" r="2" fill="#c0392b"/><circle cx="240.8" cy="152.4" r="2" fill="#c0392b"/><circle cx="199.7" cy="170.9" r="2" fill="#c0392b"/><circle cx="194.1" cy="114.6" r="2" fill="#c0392b"/><circle cx="161.6" cy="159.3" r="2" fill="#c0392b"/><circle cx="243.5" cy="206.4" r="2" fill="#c0392b"/><ellipse cx="227.3" cy="147.9" rx="2.2" ry="1.3" fill="#fffaf0" transform="rotate(15 227.3 147.9)"/><ellipse cx="127.6" cy="134.6" rx="2.2" ry="1.3" fill="#fffaf0" transform="rotate(12 127.6 134.6)"/><ellipse cx="187.1" cy="99.9" rx="2.2" ry="1.3" fill="#fffaf0" transform="rotate(172 187.1 99.9)"/><ellipse cx="182.5" cy="215.7" rx="2.2" ry="1.3" fill="#fffaf0" transform="rotate(157 182.5 215.7)"/><ellipse cx="210.7" cy="118.8" rx="2.2" ry="1.3" fill="#fffaf0" transform="rotate(21 210.7 118.8)"/><ellipse cx="148.9" cy="147" rx="2.2" ry="1.3" fill="#fffaf0" transform="rotate(148 148.9 147)"/><ellipse cx="167.7" cy="84.6" rx="2.2" ry="1.3" fill="#fffaf0" transform="rotate(139 167.7 84.6)"/><ellipse cx="215" cy="197.5" rx="2.2" ry="1.3" fill="#fffaf0" transform="rotate(105 215 197.5)"/><ellipse cx="118.3" cy="145.8" rx="2.2" ry="1.3" fill="#fffaf0" transform="rotate(21 118.3 145.8)"/><ellipse cx="179.7" cy="105.7" rx="2.2" ry="1.3" fill="#fffaf0" transform="rotate(142 179.7 105.7)"/><ellipse cx="212.1" cy="211.2" rx="2.2" ry="1.3" fill="#fffaf0" transform="rotate(132 212.1 211.2)"/><ellipse cx="166.5" cy="70.9" rx="2.2" ry="1.3" fill="#fffaf0" transform="rotate(154 166.5 70.9)"/><ellipse cx="214.3" cy="142.7" rx="2.2" ry="1.3" fill="#fffaf0" transform="rotate(176 214.3 142.7)"/><ellipse cx="213.8" cy="128.4" rx="2.2" ry="1.3" fill="#fffaf0" transform="rotate(89 213.8 128.4)"/><ellipse cx="234.6" cy="166.9" rx="2.2" ry="1.3" fill="#fffaf0" transform="rotate(105 234.6 166.9)"/><ellipse cx="213.1" cy="152.7" rx="2.2" ry="1.3" fill="#fffaf0" transform="rotate(107 213.1 152.7)"/><ellipse cx="154.7" cy="209.7" rx="2.2" ry="1.3" fill="#fffaf0" transform="rotate(61 154.7 209.7)"/><ellipse cx="130" cy="145.9" rx="2.2" ry="1.3" fill="#fffaf0" transform="rotate(75 130 145.9)"/><ellipse cx="202.2" cy="171.7" rx="2.2" ry="1.3" fill="#fffaf0" transform="rotate(68 202.2 171.7)"/><ellipse cx="134.5" cy="110.2" rx="2.2" ry="1.3" fill="#fffaf0" transform="rotate(12 134.5 110.2)"/><ellipse cx="258.3" cy="184.8" rx="8" ry="5.5" fill="#f3ead2" transform="rotate(124.81970112305135 258.3 184.8)"/><ellipse cx="168.6" cy="76.3" rx="8" ry="5.5" fill="#f3ead2" transform="rotate(105.23438796401024 168.6 76.3)"/><ellipse cx="237" cy="168.2" rx="8" ry="5.5" fill="#f3ead2" transform="rotate(135.26668931823224 237 168.2)"/><ellipse cx="154.9" cy="218.7" rx="8" ry="5.5" fill="#f3ead2" transform="rotate(145.56515857111663 154.9 218.7)"/></svg>
