<svg xmlns="http://www.w3.org/2000/svg" viewBox="0 0 400 300" width="400" height="300"><title>Sliced teriyaki chicken with sesame seeds and green onion, beside rice</title><rect width="400" height="300" fill="#e8e1d2"/><ellipse cx="189" cy="158" rx="118" ry="118" fill="#000" opacity=".09"/><circle cx="185" cy="150" r="118" fill="#fbfaf6"/><circle cx="185" cy="150" r="94.4" fill="#efece4"/><g transform="translate(185 150) rotate(-10) scale(1)"><path d="M-50-18C-30-40 30-38 52-12 62 6 40 30 4 30-34 30-60 10-50-18Z" fill="#c98a3e"/><path d="M-40-14C-24-32 24-30 42-10 50 4 32 22 4 22-28 22-48 8-40-14Z" fill="#e2ac5c"/><path d="M-20-8l12 16M0-12l12 16M20-10l10 14" stroke="#b56e2a" stroke-width="4" stroke-linecap="round" opacity=".7"/></g><path d="M145 140c20-10 50-6 80 6" fill="none" stroke="#6b3a24" stroke-width="7" stroke-linecap="round" opacity=".8"/><ellipse cx="220" cy="196.1" rx="2.2" ry="1.3" fill="#fffaf0" transform="rotate(31 220 196.1)"/><ellipse cx="155.2" cy="161.6" rx="2.2" ry="1.3" fill="#fffaf0" transform="rotate(18 155.2 161.6)"/><ellipse cx="158" cy="81.9" rx="2.2" ry="1.3" fill="#fffaf0" transform="rotate(169 158 81.9)"/><ellipse cx="203.5" cy="83.3" rx="2.2" ry="1.3" fill="#fffaf0" transform="rotate(120 203.5 83.3)"/><ellipse cx="188.6" cy="169.4" rx="2.2" ry="1.3" fill="#fffaf0" transform="rotate(148 188.6 169.4)"/><ellipse cx="197.1" cy="144.2" rx="2.2" ry="1.3" fill="#fffaf0" transform="rotate(173 197.1 144.2)"/><ellipse cx="148.4" cy="111.3" rx="2.2" ry="1.3" fill="#fffaf0" transform="rotate(29 148.4 111.3)"/><ellipse cx="224.4" cy="179.9" rx="2.2" ry="1.3" fill="#fffaf0" transform="rotate(78 224.4 179.9)"/><ellipse cx="191.2" cy="80.6" rx="2.2" ry="1.3" fill="#fffaf0" transform="rotate(11 191.2 80.6)"/><ellipse cx="177.5" cy="105.1" rx="2.2" ry="1.3" fill="#fffaf0" transform="rotate(143 177.5 105.1)"/><ellipse cx="236.7" cy="136" rx="2.2" ry="1.3" fill="#fffaf0" transform="rotate(45 236.7 136)"/><ellipse cx="179.8" cy="188.2" rx="2.2" ry="1.3" fill="#fffaf0" transform="rotate(82 179.8 188.2)"/><ellipse cx="119.6" cy="120.3" rx="2.2" ry="1.3" fill="#fffaf0" transform="rotate(140 119.6 120.3)"/><ellipse cx="145.2" cy="202.1" rx="2.2" ry="1.3" fill="#fffaf0" transform="rotate(56 145.2 202.1)"/><ellipse cx="234.5" cy="193.4" rx="2.2" ry="1.3" fill="#fffaf0" transform="rotate(59 234.5 193.4)"/><ellipse cx="251.9" cy="140" rx="2.2" ry="1.3" fill="#fffaf0" transform="rotate(141 251.9 140)"/><ellipse cx="230.8" cy="165.3" rx="2.2" ry="1.3" fill="#fffaf0" transform="rotate(19 230.8 165.3)"/><ellipse cx="111.4" cy="171.4" rx="2.2" ry="1.3" fill="#fffaf0" transform="rotate(91 111.4 171.4)"/><ellipse cx="173.2" cy="79.9" rx="2.2" ry="1.3" fill="#fffaf0" transform="rotate(104 173.2 79.9)"/><ellipse cx="181.8" cy="189.8" rx="2.2" ry="1.3" fill="#fffaf0" transform="rotate(6 181.8 189.8)"/><circle cx="180.5" cy="191.5" r="4" fill="none" stroke="#5aa54a" stroke-width="2.5"/><circle cx="115.2" cy="177.6" r="4" fill="none" stroke="#5aa54a" stroke-width="2.5"/><circle cx="194.3" cy="188" r="4" fill="none" stroke="#5aa54a" stroke-width="2.5"/><circle cx="153.7" cy="178.8" r="4" fill="none" stroke="#5aa54a" stroke-width="2.5"/><circle cx="144" cy="177.2" r="4" fill="none" stroke="#5aa54a" stroke-width="2.5"/><circle cx="215.1" cy="172.6" r="4" fill="none" stroke="#5aa54a" stroke-width="2.5"/><circle cx="249.8" cy="140.8" r="4" fill="none" stroke="#5aa54a" stroke-width="2.5"/><circle cx="200.8" cy="160.4" r="4" fill="none" stroke="#5aa54a" stroke-width="2.5"/><circle cx="199.8" cy="136.1" r="4" fill="none" stroke="#5aa54a" stroke-width="2.5"/><circle cx="207.4" cy="97.5" r="4" fill="none" stroke="#5aa54a" stroke-width="2.5"/><circle cx="162" cy="169.1" r="4" fill="none" stroke="#5aa54a" stroke-width="2.5"/><circle cx="183.9" cy="177.2" r="4" fill="none" stroke="#5aa54a" stroke-width="2.5"/><ellipse cx="339" cy="238" rx="52" ry="52" fill="#000" opacity=".09"/><circle cx="335" cy="230" r="52" fill="#fbfaf6"/><circle cx="335" cy="230" r="43.7" fill="#e6e1d6"/><circle cx="335" cy="230" r="41.6" fill="#fbf7ee"/><ellipse cx="348.6" cy="220.1" rx="4.2" ry="2" fill="#fff" transform="rotate(169 348.6 220.1)"/><ellipse cx="336.2" cy="217.3" rx="4.2" ry="2" fill="#fff" transform="rotate(64 336.2 217.3)"/><ellipse cx="349.7" cy="198.4" rx="4.2" ry="2" fill="#fff" transform="rotate(75 349.7 198.4)"/><ellipse cx="340.8" cy="251.3" rx="4.2" ry="2" fill="#fff" transform="rotate(155 340.8 251.3)"/><ellipse cx="335.3" cy="244.1" rx="4.2" ry="2" fill="#fff" transform="rotate(57 335.3 244.1)"/><ellipse cx="340.1" cy="239.4" rx="4.2" ry="2" fill="#fff" transform="rotate(133 340.1 239.4)"/><ellipse cx="320.8" cy="216.3" rx="4.2" ry="2" fill="#fff" transform="rotate(54 320.8 216.3)"/><ellipse cx="340.3" cy="236" rx="4.2" ry="2" fill="#fff" transform="rotate(56 340.3 236)"/><ellipse cx="358.6" cy="255.3" rx="4.2" ry="2" fill="#fff" transform="rotate(63 358.6 255.3)"/><ellipse cx="303.9" cy="237.7" rx="4.2" ry="2" fill="#fff" transform="rotate(112 303.9 237.7)"/><ellipse cx="349.7" cy="233.7" rx="4.2" ry="2" fill="#fff" transform="rotate(61 349.7 233.7)"/><ellipse cx="328.6" cy="204.9" rx="4.2" ry="2" fill="#fff" transform="rotate(122 328.6 204.9)"/><ellipse cx="351.3" cy="211.1" rx="4.2" ry="2" fill="#fff" transform="rotate(142 351.3 211.1)"/><ellipse cx="338.2" cy="265.6" rx="4.2" ry="2" fill="#fff" transform="rotate(75 338.2 265.6)"/><ellipse cx="356.3" cy="259" rx="4.2" ry="2" fill="#fff" transform="rotate(34 356.3 259)"/><ellipse cx="349.5" cy="213.8" rx="4.2" ry="2" fill="#fff" transform="rotate(16 349.5 213.8)"/><ellipse cx="351.8" cy="215.7" rx="4.2" ry="2" fill="#fff" transform="rotate(170 351.8 215.7)"/><ellipse cx="355" cy="201.4" rx="4.2" ry="2" fill="#fff" transform="rotate(90 355 201.4)"/><ellipse cx="339.4" cy="219.3" rx="4.2" ry="2" fill="#fff" transform="rotate(158 339.4 219.3)"/><ellipse cx="332.2" cy="232.4" rx="4.2" ry="2" fill="#fff" transform="rotate(39 332.2 232.4)"/><ellipse cx="367.8" cy="243.7" rx="4.2" ry="2" fill="#fff" transform="rotate(91 367.8 243.7)"/><ellipse cx="302.5" cy="228.2" rx="4.2" ry="2" fill="#fff" transform="rotate(166 302.5 228.2)"/><ellipse cx="320.5" cy="262.4" rx="4.2" ry="2" fill="#fff" transform="rotate(115 320.5 262.4)"/><ellipse cx="314.9" cy="253" rx="4.2" ry="2" fill="#fff" transform="rotate(82 314.9 253)"/><ellipse cx="356.8" cy="208.5" rx="4.2" ry="2" fill="#fff" transform="rotate(67 356.8 208.5)"/><ellipse cx="362.4" cy="230.8" rx="4.2" ry="2" fill="#fff" transform="rotate(47 362.4 230.8)"/><ellipse cx="353.1" cy="208.7" rx="4.2" ry="2" fill="#fff" transform="rotate(35 353.1 208.7)"/><ellipse cx="318.3" cy="229.8" rx="4.2" ry="2" fill="#fff" transform="rotate(76 318.3 229.8)"/><ellipse cx="326" cy="234" rx="4.2" ry="2" fill="#fff" transform="rotate(126 326 234)"/><ellipse cx="317.4" cy="237.2" rx="4.2" ry="2" fill="#fff" transform="rotate(90 317.4 237.2)"/></svg>
