<svg xmlns="http://www.w3.org/2000/svg" viewBox="0 0 400 300" width="400" height="300"><title>A casserole of noodles, tuna and peas under a crisp crumb topping</title><rect width="400" height="300" fill="#dfe8ef"/><rect x="55" y="50" width="300" height="210" rx="28" fill="#000" opacity=".09"/><rect x="45" y="40" width="300" height="210" rx="28" fill="#f7f4ee"/><rect x="62" y="57" width="266" height="176" rx="18" fill="#f0d68a"/><path d="M118.3 182.2c10.2 -18 20.3 18 33.9 0" fill="none" stroke="#fbeebf" stroke-width="5" stroke-linecap="round" transform="rotate(111 118.3 182.2)"/><path d="M165.2 89c13.1 -18 26.3 18 43.8 0" fill="none" stroke="#fbeebf" stroke-width="5" stroke-linecap="round" transform="rotate(52 165.2 89)"/><path d="M213.1 78c9.5 -18 19 18 31.6 0" fill="none" stroke="#fbeebf" stroke-width="5" stroke-linecap="round" transform="rotate(96 213.1 78)"/><path d="M215.5 173.9c10.9 -18 21.8 18 36.3 0" fill="none" stroke="#fbeebf" stroke-width="5" stroke-linecap="round" transform="rotate(54 215.5 173.9)"/><path d="M149.8 92.9c10.8 -18 21.7 18 36.1 0" fill="none" stroke="#fbeebf" stroke-width="5" stroke-linecap="round" transform="rotate(101 149.8 92.9)"/><path d="M213.3 202.4c14.1 -18 28.1 18 46.9 0" fill="none" stroke="#fbeebf" stroke-width="5" stroke-linecap="round" transform="rotate(114 213.3 202.4)"/><path d="M294.7 177.3c12 -18 24 18 40 0" fill="none" stroke="#fbeebf" stroke-width="5" stroke-linecap="round" transform="rotate(134 294.7 177.3)"/><path d="M156.1 181.6c9.8 -18 19.6 18 32.6 0" fill="none" stroke="#fbeebf" stroke-width="5" stroke-linecap="round" transform="rotate(167 156.1 181.6)"/><path d="M263.1 119.8c13.7 -18 27.3 18 45.5 0" fill="none" stroke="#fbeebf" stroke-width="5" stroke-linecap="round" transform="rotate(144 263.1 119.8)"/><path d="M124.4 185c12 -18 24 18 40 0" fill="none" stroke="#fbeebf" stroke-width="5" stroke-linecap="round" transform="rotate(146 124.4 185)"/><path d="M168.9 163.3c9.4 -18 18.8 18 31.4 0" fill="none" stroke="#fbeebf" stroke-width="5" stroke-linecap="round" transform="rotate(153 168.9 163.3)"/><path d="M269.1 81.1c13.2 -18 26.5 18 44.1 0" fill="none" stroke="#fbeebf" stroke-width="5" stroke-linecap="round" transform="rotate(126 269.1 81.1)"/><path d="M157.3 119.2c15 -18 30 18 50 0" fill="none" stroke="#fbeebf" stroke-width="5" stroke-linecap="round" transform="rotate(114 157.3 119.2)"/><path d="M221.6 198.7c11.1 -18 22.2 18 37 0" fill="none" stroke="#fbeebf" stroke-width="5" stroke-linecap="round" transform="rotate(135 221.6 198.7)"/><path d="M276.5 207.7c11.7 -18 23.3 18 38.9 0" fill="none" stroke="#fbeebf" stroke-width="5" stroke-linecap="round" transform="rotate(43 276.5 207.7)"/><path d="M249.7 175.2c14.9 -18 29.9 18 49.8 0" fill="none" stroke="#fbeebf" stroke-width="5" stroke-linecap="round" transform="rotate(104 249.7 175.2)"/><path d="M247.7 149.5c13 -18 26 18 43.3 0" fill="none" stroke="#fbeebf" stroke-width="5" stroke-linecap="round" transform="rotate(76 247.7 149.5)"/><path d="M215.1 88.3c9.8 -18 19.5 18 32.5 0" fill="none" stroke="#fbeebf" stroke-width="5" stroke-linecap="round" transform="rotate(139 215.1 88.3)"/><path d="M204.7 74.5c14 -18 27.9 18 46.5 0" fill="none" stroke="#fbeebf" stroke-width="5" stroke-linecap="round" transform="rotate(121 204.7 74.5)"/><path d="M243.3 99.8c11.1 -18 22.1 18 36.9 0" fill="none" stroke="#fbeebf" stroke-width="5" stroke-linecap="round" transform="rotate(87 243.3 99.8)"/><circle cx="311.2" cy="105.2" r="4" fill="#7bbf4a"/><circle cx="190.9" cy="140.3" r="4" fill="#7bbf4a"/><circle cx="153.6" cy="219.9" r="4" fill="#7bbf4a"/><circle cx="297.3" cy="145" r="4" fill="#7bbf4a"/><circle cx="146.3" cy="183" r="4" fill="#7bbf4a"/><circle cx="182.6" cy="106.6" r="4" fill="#7bbf4a"/><circle cx="251" cy="76.2" r="4" fill="#7bbf4a"/><circle cx="96.6" cy="118.4" r="4" fill="#7bbf4a"/><circle cx="235.2" cy="177" r="4" fill="#7bbf4a"/><circle cx="219.2" cy="104.1" r="4" fill="#7bbf4a"/><circle cx="269.8" cy="110.6" r="4" fill="#7bbf4a"/><circle cx="169.1" cy="152.8" r="4" fill="#7bbf4a"/><circle cx="234.4" cy="149.3" r="4" fill="#7bbf4a"/><circle cx="75.1" cy="135.8" r="4" fill="#7bbf4a"/><circle cx="206.4" cy="154.1" r="4" fill="#7bbf4a"/><circle cx="148.5" cy="133.3" r="4" fill="#7bbf4a"/><circle cx="205.1" cy="70.4" r="4" fill="#d09a4a"/><circle cx="194.3" cy="89.9" r="5.3" fill="#d09a4a"/><circle cx="203.4" cy="106.1" r="4.4" fill="#d09a4a"/><circle cx="118.2" cy="73.8" r="6.1" fill="#d09a4a"/><circle cx="114" cy="209.2" r="5" fill="#d09a4a"/><circle cx="296.5" cy="106.5" r="3.5" fill="#d09a4a"/><circle cx="158.3" cy="118.6" r="5" fill="#d09a4a"/><circle cx="83.6" cy="134" r="4.7" fill="#d09a4a"/><circle cx="233" cy="92.9" r="5.1" fill="#d09a4a"/><circle cx="110.3" cy="105.4" r="3.7" fill="#d09a4a"/><circle cx="112.1" cy="114.9" r="4.8" fill="#d09a4a"/><circle cx="181.4" cy="111" r="4.2" fill="#d09a4a"/><circle cx="249.8" cy="200.8" r="3.7" fill="#d09a4a"/><circle cx="96.9" cy="171.1" r="5.9" fill="#d09a4a"/><circle cx="174" cy="75.7" r="5" fill="#d09a4a"/><circle cx="269.7" cy="221.9" r="6" fill="#d09a4a"/><circle cx="238.4" cy="71.2" r="5.8" fill="#d09a4a"/><circle cx="87.7" cy="201.1" r="4.9" fill="#d09a4a"/><circle cx="152.4" cy="129.2" r="3.1" fill="#d09a4a"/><circle cx="97.1" cy="129.6" r="6.2" fill="#d09a4a"/><circle cx="248.8" cy="69.7" r="3.9" fill="#d09a4a"/><circle cx="273.5" cy="114.7" r="6.2" fill="#d09a4a"/><circle cx="104.5" cy="144.3" r="3.9" fill="#d09a4a"/><circle cx="257.9" cy="190.9" r="5.2" fill="#d09a4a"/><circle cx="166.6" cy="101.5" r="5.6" fill="#d09a4a"/><circle cx="206.1" cy="79.1" r="6.8" fill="#d09a4a"/><circle cx="201.9" cy="90.5" r="6.3" fill="#d09a4a"/><circle cx="282.1" cy="187.1" r="3.9" fill="#d09a4a"/><circle cx="108.7" cy="69.2" r="3.9" fill="#d09a4a"/><circle cx="274.5" cy="146.7" r="6.4" fill="#d09a4a"/><circle cx="80.9" cy="171.9" r="3.9" fill="#d09a4a"/><circle cx="312" cy="125.3" r="5.4" fill="#d09a4a"/><circle cx="189.1" cy="115.7" r="4.5" fill="#d09a4a"/><circle cx="132.8" cy="159.8" r="5.7" fill="#d09a4a"/><circle cx="281.9" cy="106" r="5.9" fill="#d09a4a"/><circle cx="259.8" cy="157.3" r="6.8" fill="#d09a4a"/><circle cx="123.9" cy="158.7" r="4" fill="#d09a4a"/><circle cx="216.1" cy="156.8" r="3.1" fill="#d09a4a"/><circle cx="96.5" cy="114.1" r="3.8" fill="#d09a4a"/><circle cx="204.8" cy="102.8" r="6.7" fill="#d09a4a"/></svg>
