<svg xmlns="http://www.w3.org/2000/svg" viewBox="0 0 400 300" width="400" height="300"><title>A bowl of vegetable barley soup with carrots and green beans</title><rect width="400" height="300" fill="#efe3d6"/><ellipse cx="189" cy="158" rx="115" ry="115" fill="#000" opacity=".09"/><circle cx="185" cy="150" r="115" fill="#fbfaf6"/><circle cx="185" cy="150" r="96.6" fill="#e6e1d6"/><circle cx="185" cy="150" r="92" fill="#c9793a"/><ellipse cx="116.9" cy="163.7" rx="4.2" ry="2" fill="#efe0b8" transform="rotate(179 116.9 163.7)"/><ellipse cx="262.7" cy="131.3" rx="4.2" ry="2" fill="#efe0b8" transform="rotate(44 262.7 131.3)"/><ellipse cx="191.4" cy="103.8" rx="4.2" ry="2" fill="#efe0b8" transform="rotate(20 191.4 103.8)"/><ellipse cx="195.5" cy="191.3" rx="4.2" ry="2" fill="#efe0b8" transform="rotate(79 195.5 191.3)"/><ellipse cx="132.4" cy="118" rx="4.2" ry="2" fill="#efe0b8" transform="rotate(96 132.4 118)"/><ellipse cx="137.3" cy="179.5" rx="4.2" ry="2" fill="#efe0b8" transform="rotate(28 137.3 179.5)"/><ellipse cx="248" cy="166.8" rx="4.2" ry="2" fill="#efe0b8" transform="rotate(93 248 166.8)"/><ellipse cx="169.1" cy="205.4" rx="4.2" ry="2" fill="#efe0b8" transform="rotate(7 169.1 205.4)"/><ellipse cx="227.5" cy="205.5" rx="4.2" ry="2" fill="#efe0b8" transform="rotate(136 227.5 205.5)"/><ellipse cx="198.9" cy="80.7" rx="4.2" ry="2" fill="#efe0b8" transform="rotate(163 198.9 80.7)"/><ellipse cx="191.8" cy="208" rx="4.2" ry="2" fill="#efe0b8" transform="rotate(154 191.8 208)"/><ellipse cx="202.7" cy="71.2" rx="4.2" ry="2" fill="#efe0b8" transform="rotate(13 202.7 71.2)"/><ellipse cx="145.3" cy="159.9" rx="4.2" ry="2" fill="#efe0b8" transform="rotate(27 145.3 159.9)"/><ellipse cx="233.5" cy="125.1" rx="4.2" ry="2" fill="#efe0b8" transform="rotate(45 233.5 125.1)"/><ellipse cx="239.7" cy="184.7" rx="4.2" ry="2" fill="#efe0b8" transform="rotate(14 239.7 184.7)"/><ellipse cx="131.7" cy="206.6" rx="4.2" ry="2" fill="#efe0b8" transform="rotate(10 131.7 206.6)"/><ellipse cx="163" cy="103.8" rx="4.2" ry="2" fill="#efe0b8" transform="rotate(50 163 103.8)"/><ellipse cx="240.5" cy="191.9" rx="4.2" ry="2" fill="#efe0b8" transform="rotate(99 240.5 191.9)"/><ellipse cx="180.4" cy="162.3" rx="4.2" ry="2" fill="#efe0b8" transform="rotate(22 180.4 162.3)"/><ellipse cx="124.5" cy="115.4" rx="4.2" ry="2" fill="#efe0b8" transform="rotate(130 124.5 115.4)"/><ellipse cx="181.4" cy="210.1" rx="4.2" ry="2" fill="#efe0b8" transform="rotate(84 181.4 210.1)"/><ellipse cx="164.1" cy="198" rx="4.2" ry="2" fill="#efe0b8" transform="rotate(58 164.1 198)"/><ellipse cx="247.1" cy="176.4" rx="4.2" ry="2" fill="#efe0b8" transform="rotate(177 247.1 176.4)"/><ellipse cx="177.1" cy="185.8" rx="4.2" ry="2" fill="#efe0b8" transform="rotate(70 177.1 185.8)"/><ellipse cx="200.8" cy="127.1" rx="4.2" ry="2" fill="#efe0b8" transform="rotate(171 200.8 127.1)"/><ellipse cx="219.5" cy="178.1" rx="4.2" ry="2" fill="#efe0b8" transform="rotate(67 219.5 178.1)"/><ellipse cx="135.1" cy="180.8" rx="4.2" ry="2" fill="#efe0b8" transform="rotate(179 135.1 180.8)"/><ellipse cx="133.1" cy="141" rx="4.2" ry="2" fill="#efe0b8" transform="rotate(101 133.1 141)"/><ellipse cx="167.3" cy="91.8" rx="4.2" ry="2" fill="#efe0b8" transform="rotate(38 167.3 91.8)"/><ellipse cx="159.9" cy="194.8" rx="4.2" ry="2" fill="#efe0b8" transform="rotate(17 159.9 194.8)"/><ellipse cx="126.7" cy="185.4" rx="4.2" ry="2" fill="#efe0b8" transform="rotate(79 126.7 185.4)"/><ellipse cx="148" cy="218.3" rx="4.2" ry="2" fill="#efe0b8" transform="rotate(159 148 218.3)"/><ellipse cx="223" cy="122.7" rx="4.2" ry="2" fill="#efe0b8" transform="rotate(116 223 122.7)"/><ellipse cx="125.9" cy="192.4" rx="4.2" ry="2" fill="#efe0b8" transform="rotate(39 125.9 192.4)"/><ellipse cx="262.9" cy="144" rx="4.2" ry="2" fill="#efe0b8" transform="rotate(73 262.9 144)"/><ellipse cx="263.6" cy="138.7" rx="4.2" ry="2" fill="#efe0b8" transform="rotate(58 263.6 138.7)"/><ellipse cx="142.6" cy="176.4" rx="4.2" ry="2" fill="#efe0b8" transform="rotate(67 142.6 176.4)"/><ellipse cx="163.8" cy="186.2" rx="4.2" ry="2" fill="#efe0b8" transform="rotate(155 163.8 186.2)"/><ellipse cx="132.7" cy="163" rx="4.2" ry="2" fill="#efe0b8" transform="rotate(96 132.7 163)"/><ellipse cx="134.5" cy="98.9" rx="4.2" ry="2" fill="#efe0b8" transform="rotate(61 134.5 98.9)"/><circle cx="253.4" cy="103.6" r="7" fill="#f08a33"/><circle cx="253.4" cy="103.6" r="4.5" fill="#fff" opacity=".2"/><circle cx="200.1" cy="216.4" r="7" fill="#f08a33"/><circle cx="200.1" cy="216.4" r="4.5" fill="#fff" opacity=".2"/><circle cx="190.2" cy="227.5" r="7" fill="#f08a33"/><circle cx="190.2" cy="227.5" r="4.5" fill="#fff" opacity=".2"/><circle cx="176.1" cy="109.5" r="7" fill="#f08a33"/><circle cx="176.1" cy="109.5" r="4.5" fill="#fff" opacity=".2"/><circle cx="222.5" cy="174.2" r="7" fill="#f08a33"/><circle cx="222.5" cy="174.2" r="4.5" fill="#fff" opacity=".2"/><circle cx="119.7" cy="155.2" r="7" fill="#f08a33"/><circle cx="119.7" cy="155.2" r="4.5" fill="#fff" opacity=".2"/><circle cx="158.4" cy="102.9" r="7" fill="#f08a33"/><circle cx="158.4" cy="102.9" r="4.5" fill="#fff" opacity=".2"/><circle cx="192.6" cy="194.4" r="7" fill="#f08a33"/><circle cx="192.6" cy="194.4" r="4.5" fill="#fff" opacity=".2"/><circle cx="192.9" cy="118.7" r="7" fill="#f08a33"/><circle cx="192.9" cy="118.7" r="4.5" fill="#fff" opacity=".2"/><circle cx="211.6" cy="97.8" r="7" fill="#f08a33"/><circle cx="211.6" cy="97.8" r="4.5" fill="#fff" opacity=".2"/><circle cx="106.7" cy="156.8" r="7" fill="#f08a33"/><circle cx="106.7" cy="156.8" r="4.5" fill="#fff" opacity=".2"/><circle cx="244.8" cy="163" r="7" fill="#f08a33"/><circle cx="244.8" cy="163" r="4.5" fill="#fff" opacity=".2"/><g transform="translate(163.2 215.1) rotate(54)"><rect x="-15" y="-4" width="30" height="8" rx="4" fill="#5e9c3a"/><rect x="-9" y="-2" width="10" height="2" rx="1" fill="#86c25a"/></g><g transform="translate(147.9 166.9) rotate(75)"><rect x="-15" y="-4" width="30" height="8" rx="4" fill="#5e9c3a"/><rect x="-9" y="-2" width="10" height="2" rx="1" fill="#86c25a"/></g><g transform="translate(255.3 144.1) rotate(35)"><rect x="-15" y="-4" width="30" height="8" rx="4" fill="#5e9c3a"/><rect x="-9" y="-2" width="10" height="2" rx="1" fill="#86c25a"/></g><g transform="translate(261.2 132.7) rotate(179)"><rect x="-15" y="-4" width="30" height="8" rx="4" fill="#5e9c3a"/><rect x="-9" y="-2" width="10" height="2" rx="1" fill="#86c25a"/></g><g transform="translate(195.2 134.2) rotate(54)"><rect x="-15" y="-4" width="30" height="8" rx="4" fill="#5e9c3a"/><rect x="-9" y="-2" width="10" height="2" rx="1" fill="#86c25a"/></g><g transform="translate(198.1 89.7) rotate(140)"><rect x="-15" y="-4" width="30" height="8" rx="4" fill="#5e9c3a"/><rect x="-9" y="-2" width="10" height="2" rx="1" fill="#86c25a"/></g><rect x="250.4" y="163.7" width="7" height="7" rx="2" fill="#b6d98a" transform="rotate(98 253.9 167.2)"/><rect x="100" y="154.3" width="7" height="7" rx="2" fill="#b6d98a" transform="rotate(173 103.5 157.8)"/><rect x="257.5" y="118.1" width="7" height="7" rx="2" fill="#b6d98a" transform="rotate(88 261 121.6)"/><rect x="162.2" y="105.1" width="7" height="7" rx="2" fill="#b6d98a" transform="rotate(128 165.7 108.6)"/><rect x="113.5" y="104.7" width="7" height="7" rx="2" fill="#b6d98a" transform="rotate(97 117 108.2)"/><rect x="145.4" y="128.4" width="7" height="7" rx="2" fill="#b6d98a" transform="rotate(12 148.9 131.9)"/><rect x="143.6" y="172.6" width="7" height="7" rx="2" fill="#b6d98a" transform="rotate(113 147.1 176.1)"/><rect x="198.4" y="182.8" width="7" height="7" rx="2" fill="#b6d98a" transform="rotate(148 201.9 186.3)"/><ellipse cx="248.2" cy="109.2" rx="3.5" ry="1.6" fill="#3f8a3c" transform="rotate(96 248.2 109.2)"/><ellipse cx="128.6" cy="116" rx="3.5" ry="1.6" fill="#3f8a3c" transform="rotate(82 128.6 116)"/><ellipse cx="132" cy="122.8" rx="3.5" ry="1.6" fill="#3f8a3c" transform="rotate(153 132 122.8)"/><ellipse cx="172.9" cy="209.4" rx="3.5" ry="1.6" fill="#3f8a3c" transform="rotate(112 172.9 209.4)"/><ellipse cx="203.5" cy="178.9" rx="3.5" ry="1.6" fill="#3f8a3c" transform="rotate(155 203.5 178.9)"/><ellipse cx="258.2" cy="134.5" rx="3.5" ry="1.6" fill="#3f8a3c" transform="rotate(128 258.2 134.5)"/><ellipse cx="179.4" cy="138.8" rx="3.5" ry="1.6" fill="#3f8a3c" transform="rotate(155 179.4 138.8)"/><ellipse cx="178.1" cy="69.7" rx="3.5" ry="1.6" fill="#3f8a3c" transform="rotate(44 178.1 69.7)"/><ellipse cx="150.4" cy="216.1" rx="3.5" ry="1.6" fill="#3f8a3c" transform="rotate(129 150.4 216.1)"/><ellipse cx="236.4" cy="154" rx="3.5" ry="1.6" fill="#3f8a3c" transform="rotate(156 236.4 154)"/></svg>
