<svg xmlns="http://www.w3.org/2000/svg" viewBox="0 0 400 300" width="400" height="300"><title>A bowl of creamy orange butter chicken with cilantro, beside rice</title><rect width="400" height="300" fill="#f1e0cf"/><ellipse cx="189" cy="158" rx="115" ry="115" fill="#000" opacity=".09"/><circle cx="185" cy="150" r="115" fill="#fbfaf6"/><circle cx="185" cy="150" r="96.6" fill="#e6e1d6"/><circle cx="185" cy="150" r="92" fill="#e0702e"/><path d="M150 150c8-20 40-20 45 0s-26 20-32 6 8-14 18-8" fill="none" stroke="#fbe9dc" stroke-width="6" stroke-linecap="round"/><rect x="130.7" y="126.1" width="15" height="15" rx="2" fill="#c98a3e" transform="rotate(138 138.2 133.6)"/><rect x="133.2" y="128.6" width="10" height="10" rx="2" fill="#e2ac5c" transform="rotate(138 138.2 133.6)"/><rect x="126.4" y="149.8" width="15" height="15" rx="2" fill="#c98a3e" transform="rotate(138 133.9 157.3)"/><rect x="128.9" y="152.3" width="10" height="10" rx="2" fill="#e2ac5c" transform="rotate(138 133.9 157.3)"/><rect x="237.1" y="99.6" width="15" height="15" rx="2" fill="#c98a3e" transform="rotate(94 244.6 107.1)"/><rect x="239.6" y="102.1" width="10" height="10" rx="2" fill="#e2ac5c" transform="rotate(94 244.6 107.1)"/><rect x="95.7" y="143.1" width="15" height="15" rx="2" fill="#c98a3e" transform="rotate(149 103.2 150.6)"/><rect x="98.2" y="145.6" width="10" height="10" rx="2" fill="#e2ac5c" transform="rotate(149 103.2 150.6)"/><rect x="130.9" y="144.2" width="15" height="15" rx="2" fill="#c98a3e" transform="rotate(59 138.4 151.7)"/><rect x="133.4" y="146.7" width="10" height="10" rx="2" fill="#e2ac5c" transform="rotate(59 138.4 151.7)"/><rect x="202.6" y="154.1" width="15" height="15" rx="2" fill="#c98a3e" transform="rotate(123 210.1 161.6)"/><rect x="205.1" y="156.6" width="10" height="10" rx="2" fill="#e2ac5c" transform="rotate(123 210.1 161.6)"/><rect x="155.4" y="96.8" width="15" height="15" rx="2" fill="#c98a3e" transform="rotate(93 162.9 104.3)"/><rect x="157.9" y="99.3" width="10" height="10" rx="2" fill="#e2ac5c" transform="rotate(93 162.9 104.3)"/><rect x="204.2" y="111.9" width="15" height="15" rx="2" fill="#c98a3e" transform="rotate(171 211.7 119.4)"/><rect x="206.7" y="114.4" width="10" height="10" rx="2" fill="#e2ac5c" transform="rotate(171 211.7 119.4)"/><rect x="113.7" y="161.2" width="15" height="15" rx="2" fill="#c98a3e" transform="rotate(149 121.2 168.7)"/><rect x="116.2" y="163.7" width="10" height="10" rx="2" fill="#e2ac5c" transform="rotate(149 121.2 168.7)"/><rect x="150.9" y="174.6" width="15" height="15" rx="2" fill="#c98a3e" transform="rotate(123 158.4 182.1)"/><rect x="153.4" y="177.1" width="10" height="10" rx="2" fill="#e2ac5c" transform="rotate(123 158.4 182.1)"/><rect x="156.1" y="198.1" width="15" height="15" rx="2" fill="#c98a3e" transform="rotate(119 163.6 205.6)"/><rect x="158.6" y="200.6" width="10" height="10" rx="2" fill="#e2ac5c" transform="rotate(119 163.6 205.6)"/><rect x="234.2" y="151.2" width="15" height="15" rx="2" fill="#c98a3e" transform="rotate(39 241.7 158.7)"/><rect x="236.7" y="153.7" width="10" height="10" rx="2" fill="#e2ac5c" transform="rotate(39 241.7 158.7)"/><rect x="161" y="155.1" width="15" height="15" rx="2" fill="#c98a3e" transform="rotate(103 168.5 162.6)"/><rect x="163.5" y="157.6" width="10" height="10" rx="2" fill="#e2ac5c" transform="rotate(103 168.5 162.6)"/><rect x="234.2" y="121.4" width="15" height="15" rx="2" fill="#c98a3e" transform="rotate(94 241.7 128.9)"/><rect x="236.7" y="123.9" width="10" height="10" rx="2" fill="#e2ac5c" transform="rotate(94 241.7 128.9)"/><ellipse cx="205.1" cy="166.1" rx="6" ry="2.7" fill="#3f8a3c" transform="rotate(78 205.1 166.1)"/><ellipse cx="136.7" cy="178" rx="6" ry="2.7" fill="#3f8a3c" transform="rotate(139 136.7 178)"/><ellipse cx="115.1" cy="158.6" rx="6" ry="2.7" fill="#3f8a3c" transform="rotate(129 115.1 158.6)"/><ellipse cx="183.8" cy="232.1" rx="6" ry="2.7" fill="#3f8a3c" transform="rotate(148 183.8 232.1)"/><ellipse cx="170.5" cy="110.8" rx="6" ry="2.7" fill="#3f8a3c" transform="rotate(167 170.5 110.8)"/><ellipse cx="229.6" cy="202.6" rx="6" ry="2.7" fill="#3f8a3c" transform="rotate(179 229.6 202.6)"/><ellipse cx="178.2" cy="210.4" rx="6" ry="2.7" fill="#3f8a3c" transform="rotate(8 178.2 210.4)"/><ellipse cx="141.4" cy="200.4" rx="6" ry="2.7" fill="#3f8a3c" transform="rotate(16 141.4 200.4)"/><ellipse cx="197.8" cy="121.9" rx="6" ry="2.7" fill="#3f8a3c" transform="rotate(30 197.8 121.9)"/><ellipse cx="189" cy="69.3" rx="6" ry="2.7" fill="#3f8a3c" transform="rotate(139 189 69.3)"/><ellipse cx="334" cy="233" rx="52" ry="52" fill="#000" opacity=".09"/><circle cx="330" cy="225" r="52" fill="#fbfaf6"/><circle cx="330" cy="225" r="43.7" fill="#e6e1d6"/><circle cx="330" cy="225" r="41.6" fill="#fbf7ee"/><ellipse cx="332.1" cy="230.1" rx="4.2" ry="2" fill="#fff" transform="rotate(107 332.1 230.1)"/><ellipse cx="338.4" cy="208.4" rx="4.2" ry="2" fill="#fff" transform="rotate(102 338.4 208.4)"/><ellipse cx="299.1" cy="212.3" rx="4.2" ry="2" fill="#fff" transform="rotate(4 299.1 212.3)"/><ellipse cx="313.1" cy="229.4" rx="4.2" ry="2" fill="#fff" transform="rotate(79 313.1 229.4)"/><ellipse cx="299.9" cy="213.6" rx="4.2" ry="2" fill="#fff" transform="rotate(40 299.9 213.6)"/><ellipse cx="316.4" cy="231.2" rx="4.2" ry="2" fill="#fff" transform="rotate(137 316.4 231.2)"/><ellipse cx="342" cy="234.1" rx="4.2" ry="2" fill="#fff" transform="rotate(21 342 234.1)"/><ellipse cx="325.5" cy="221.6" rx="4.2" ry="2" fill="#fff" transform="rotate(115 325.5 221.6)"/><ellipse cx="304.3" cy="215.6" rx="4.2" ry="2" fill="#fff" transform="rotate(163 304.3 215.6)"/><ellipse cx="328.8" cy="253.7" rx="4.2" ry="2" fill="#fff" transform="rotate(136 328.8 253.7)"/><ellipse cx="362.9" cy="220.2" rx="4.2" ry="2" fill="#fff" transform="rotate(40 362.9 220.2)"/><ellipse cx="324.8" cy="191.2" rx="4.2" ry="2" fill="#fff" transform="rotate(101 324.8 191.2)"/><ellipse cx="343.5" cy="199.5" rx="4.2" ry="2" fill="#fff" transform="rotate(162 343.5 199.5)"/><ellipse cx="348.4" cy="226.8" rx="4.2" ry="2" fill="#fff" transform="rotate(175 348.4 226.8)"/><ellipse cx="349.9" cy="195.1" rx="4.2" ry="2" fill="#fff" transform="rotate(50 349.9 195.1)"/><ellipse cx="356.9" cy="202.6" rx="4.2" ry="2" fill="#fff" transform="rotate(24 356.9 202.6)"/><ellipse cx="342.8" cy="212.8" rx="4.2" ry="2" fill="#fff" transform="rotate(106 342.8 212.8)"/><ellipse cx="341.3" cy="224.6" rx="4.2" ry="2" fill="#fff" transform="rotate(88 341.3 224.6)"/><ellipse cx="339" cy="216.6" rx="4.2" ry="2" fill="#fff" transform="rotate(7 339 216.6)"/><ellipse cx="347.3" cy="250.5" rx="4.2" ry="2" fill="#fff" transform="rotate(41 347.3 250.5)"/><ellipse cx="325" cy="219.7" rx="4.2" ry="2" fill="#fff" transform="rotate(123 325 219.7)"/><ellipse cx="350.1" cy="228.5" rx="4.2" ry="2" fill="#fff" transform="rotate(39 350.1 228.5)"/><ellipse cx="310.6" cy="253.8" rx="4.2" ry="2" fill="#fff" transform="rotate(82 310.6 253.8)"/><ellipse cx="341" cy="196.6" rx="4.2" ry="2" fill="#fff" transform="rotate(43 341 196.6)"/><ellipse cx="357.7" cy="209.6" rx="4.2" ry="2" fill="#fff" transform="rotate(76 357.7 209.6)"/><ellipse cx="333.8" cy="242.9" rx="4.2" ry="2" fill="#fff" transform="rotate(87 333.8 242.9)"/><ellipse cx="354" cy="210.2" rx="4.2" ry="2" fill="#fff" transform="rotate(138 354 210.2)"/><ellipse cx="349.6" cy="214" rx="4.2" ry="2" fill="#fff" transform="rotate(89 349.6 214)"/><ellipse cx="319.5" cy="235.7" rx="4.2" ry="2" fill="#fff" transform="rotate(42 319.5 235.7)"/><ellipse cx="335.4" cy="252.8" rx="4.2" ry="2" fill="#fff" transform="rotate(87 335.4 252.8)"/></svg>
