<svg xmlns="http://www.w3.org/2000/svg" viewBox="0 0 400 300" width="400" height="300"><title>A wok of chicken with broccoli, peppers and snap peas in a glossy sauce</title><rect width="400" height="300" fill="#dde8e0"/><ellipse cx="189" cy="158" rx="115" ry="115" fill="#000" opacity=".09"/><rect x="294" y="141" width="86.3" height="18" rx="9" fill="#2a2a2e"/><circle cx="185" cy="150" r="115" fill="#2a2a2e"/><circle cx="185" cy="150" r="105" fill="#8a4a2c"/><rect x="93.3" y="168" width="15" height="15" rx="2" fill="#c98a3e" transform="rotate(135 100.8 175.5)"/><rect x="95.8" y="170.5" width="10" height="10" rx="2" fill="#e2ac5c" transform="rotate(135 100.8 175.5)"/><rect x="131.5" y="95" width="15" height="15" rx="2" fill="#c98a3e" transform="rotate(90 139 102.5)"/><rect x="134" y="97.5" width="10" height="10" rx="2" fill="#e2ac5c" transform="rotate(90 139 102.5)"/><rect x="206.3" y="175.4" width="15" height="15" rx="2" fill="#c98a3e" transform="rotate(121 213.8 182.9)"/><rect x="208.8" y="177.9" width="10" height="10" rx="2" fill="#e2ac5c" transform="rotate(121 213.8 182.9)"/><rect x="199.1" y="67.9" width="15" height="15" rx="2" fill="#c98a3e" transform="rotate(17 206.6 75.4)"/><rect x="201.6" y="70.4" width="10" height="10" rx="2" fill="#e2ac5c" transform="rotate(17 206.6 75.4)"/><rect x="152.1" y="78.9" width="15" height="15" rx="2" fill="#c98a3e" transform="rotate(133 159.6 86.4)"/><rect x="154.6" y="81.4" width="10" height="10" rx="2" fill="#e2ac5c" transform="rotate(133 159.6 86.4)"/><rect x="170.8" y="88" width="15" height="15" rx="2" fill="#c98a3e" transform="rotate(116 178.3 95.5)"/><rect x="173.3" y="90.5" width="10" height="10" rx="2" fill="#e2ac5c" transform="rotate(116 178.3 95.5)"/><rect x="225.4" y="210.3" width="15" height="15" rx="2" fill="#c98a3e" transform="rotate(115 232.9 217.8)"/><rect x="227.9" y="212.8" width="10" height="10" rx="2" fill="#e2ac5c" transform="rotate(115 232.9 217.8)"/><rect x="177.3" y="93.8" width="15" height="15" rx="2" fill="#c98a3e" transform="rotate(102 184.8 101.3)"/><rect x="179.8" y="96.3" width="10" height="10" rx="2" fill="#e2ac5c" transform="rotate(102 184.8 101.3)"/><rect x="118.8" y="197.6" width="15" height="15" rx="2" fill="#c98a3e" transform="rotate(168 126.3 205.1)"/><rect x="121.3" y="200.1" width="10" height="10" rx="2" fill="#e2ac5c" transform="rotate(168 126.3 205.1)"/><rect x="175" y="160.9" width="15" height="15" rx="2" fill="#c98a3e" transform="rotate(147 182.5 168.4)"/><rect x="177.5" y="163.4" width="10" height="10" rx="2" fill="#e2ac5c" transform="rotate(147 182.5 168.4)"/><rect x="92.2" y="122.6" width="15" height="15" rx="2" fill="#c98a3e" transform="rotate(83 99.7 130.1)"/><rect x="94.7" y="125.1" width="10" height="10" rx="2" fill="#e2ac5c" transform="rotate(83 99.7 130.1)"/><rect x="191.6" y="89.8" width="15" height="15" rx="2" fill="#c98a3e" transform="rotate(68 199.1 97.3)"/><rect x="194.1" y="92.3" width="10" height="10" rx="2" fill="#e2ac5c" transform="rotate(68 199.1 97.3)"/><rect x="105.9" y="130.3" width="15" height="15" rx="2" fill="#c98a3e" transform="rotate(149 113.4 137.8)"/><rect x="108.4" y="132.8" width="10" height="10" rx="2" fill="#e2ac5c" transform="rotate(149 113.4 137.8)"/><rect x="184.4" y="218.7" width="15" height="15" rx="2" fill="#c98a3e" transform="rotate(37 191.9 226.2)"/><rect x="186.9" y="221.2" width="10" height="10" rx="2" fill="#e2ac5c" transform="rotate(37 191.9 226.2)"/><g transform="translate(151.8 234.4) scale(0.75)"><rect x="-4" y="2" width="8" height="16" rx="3" fill="#8bbf5a"/><circle cx="-8" cy="-2" r="9" fill="#3f8f3a"/><circle cx="8" cy="-2" r="9" fill="#3f8f3a"/><circle cx="0" cy="-9" r="10" fill="#4aa043"/><circle cx="-3" cy="-11" r="3" fill="#6cc05a"/></g><g transform="translate(178 93.8) scale(0.75)"><rect x="-4" y="2" width="8" height="16" rx="3" fill="#8bbf5a"/><circle cx="-8" cy="-2" r="9" fill="#3f8f3a"/><circle cx="8" cy="-2" r="9" fill="#3f8f3a"/><circle cx="0" cy="-9" r="10" fill="#4aa043"/><circle cx="-3" cy="-11" r="3" fill="#6cc05a"/></g><g transform="translate(260.2 168.7) scale(0.75)"><rect x="-4" y="2" width="8" height="16" rx="3" fill="#8bbf5a"/><circle cx="-8" cy="-2" r="9" fill="#3f8f3a"/><circle cx="8" cy="-2" r="9" fill="#3f8f3a"/><circle cx="0" cy="-9" r="10" fill="#4aa043"/><circle cx="-3" cy="-11" r="3" fill="#6cc05a"/></g><g transform="translate(124.8 172.1) scale(0.75)"><rect x="-4" y="2" width="8" height="16" rx="3" fill="#8bbf5a"/><circle cx="-8" cy="-2" r="9" fill="#3f8f3a"/><circle cx="8" cy="-2" r="9" fill="#3f8f3a"/><circle cx="0" cy="-9" r="10" fill="#4aa043"/><circle cx="-3" cy="-11" r="3" fill="#6cc05a"/></g><g transform="translate(222.4 212.9) scale(0.75)"><rect x="-4" y="2" width="8" height="16" rx="3" fill="#8bbf5a"/><circle cx="-8" cy="-2" r="9" fill="#3f8f3a"/><circle cx="8" cy="-2" r="9" fill="#3f8f3a"/><circle cx="0" cy="-9" r="10" fill="#4aa043"/><circle cx="-3" cy="-11" r="3" fill="#6cc05a"/></g><g transform="translate(150.9 90.4) scale(0.75)"><rect x="-4" y="2" width="8" height="16" rx="3" fill="#8bbf5a"/><circle cx="-8" cy="-2" r="9" fill="#3f8f3a"/><circle cx="8" cy="-2" r="9" fill="#3f8f3a"/><circle cx="0" cy="-9" r="10" fill="#4aa043"/><circle cx="-3" cy="-11" r="3" fill="#6cc05a"/></g><g transform="translate(181.3 132.7) scale(0.75)"><rect x="-4" y="2" width="8" height="16" rx="3" fill="#8bbf5a"/><circle cx="-8" cy="-2" r="9" fill="#3f8f3a"/><circle cx="8" cy="-2" r="9" fill="#3f8f3a"/><circle cx="0" cy="-9" r="10" fill="#4aa043"/><circle cx="-3" cy="-11" r="3" fill="#6cc05a"/></g><path d="M160.7 94.1q14-10 28 0" fill="none" stroke="#d8392b" stroke-width="6" stroke-linecap="round" transform="rotate(19 174.7 94.1)"/><path d="M171.2 70.5q14-10 28 0" fill="none" stroke="#d8392b" stroke-width="6" stroke-linecap="round" transform="rotate(175 185.2 70.5)"/><path d="M170.8 108q14-10 28 0" fill="none" stroke="#d8392b" stroke-width="6" stroke-linecap="round" transform="rotate(86 184.8 108)"/><path d="M188.1 126.5q14-10 28 0" fill="none" stroke="#d8392b" stroke-width="6" stroke-linecap="round" transform="rotate(127 202.1 126.5)"/><path d="M253.10000000000002 117.1q14-10 28 0" fill="none" stroke="#d8392b" stroke-width="6" stroke-linecap="round" transform="rotate(134 267.1 117.1)"/><path d="M204.5 130.1q14-10 28 0" fill="none" stroke="#d8392b" stroke-width="6" stroke-linecap="round" transform="rotate(87 218.5 130.1)"/><path d="M107 126.4q14-10 28 0" fill="none" stroke="#d8392b" stroke-width="6" stroke-linecap="round" transform="rotate(89 121 126.4)"/><path d="M246.3 158.8q14-10 28 0" fill="none" stroke="#d8392b" stroke-width="6" stroke-linecap="round" transform="rotate(155 260.3 158.8)"/><g transform="translate(134.2 212.5) rotate(40)"><rect x="-15" y="-4" width="30" height="8" rx="4" fill="#6fb04d"/><rect x="-9" y="-2" width="10" height="2" rx="1" fill="#86c25a"/></g><g transform="translate(255.3 166.7) rotate(21)"><rect x="-15" y="-4" width="30" height="8" rx="4" fill="#6fb04d"/><rect x="-9" y="-2" width="10" height="2" rx="1" fill="#86c25a"/></g><g transform="translate(189.8 159.4) rotate(8)"><rect x="-15" y="-4" width="30" height="8" rx="4" fill="#6fb04d"/><rect x="-9" y="-2" width="10" height="2" rx="1" fill="#86c25a"/></g><g transform="translate(183.8 72.8) rotate(9)"><rect x="-15" y="-4" width="30" height="8" rx="4" fill="#6fb04d"/><rect x="-9" y="-2" width="10" height="2" rx="1" fill="#86c25a"/></g><g transform="translate(131.1 199.3) rotate(7)"><rect x="-15" y="-4" width="30" height="8" rx="4" fill="#6fb04d"/><rect x="-9" y="-2" width="10" height="2" rx="1" fill="#86c25a"/></g><g transform="translate(175.8 162.5) rotate(12)"><rect x="-15" y="-4" width="30" height="8" rx="4" fill="#6fb04d"/><rect x="-9" y="-2" width="10" height="2" rx="1" fill="#86c25a"/></g><ellipse cx="196.3" cy="107.8" rx="2.2" ry="1.3" fill="#fffaf0" transform="rotate(156 196.3 107.8)"/><ellipse cx="210" cy="191.9" rx="2.2" ry="1.3" fill="#fffaf0" transform="rotate(31 210 191.9)"/><ellipse cx="189" cy="148" rx="2.2" ry="1.3" fill="#fffaf0" transform="rotate(62 189 148)"/><ellipse cx="175.1" cy="201.3" rx="2.2" ry="1.3" fill="#fffaf0" transform="rotate(23 175.1 201.3)"/><ellipse cx="257.1" cy="133.9" rx="2.2" ry="1.3" fill="#fffaf0" transform="rotate(166 257.1 133.9)"/><ellipse cx="151.6" cy="157.8" rx="2.2" ry="1.3" fill="#fffaf0" transform="rotate(139 151.6 157.8)"/><ellipse cx="184.7" cy="58.1" rx="2.2" ry="1.3" fill="#fffaf0" transform="rotate(28 184.7 58.1)"/><ellipse cx="197.1" cy="127.7" rx="2.2" ry="1.3" fill="#fffaf0" transform="rotate(95 197.1 127.7)"/><ellipse cx="176.9" cy="113.9" rx="2.2" ry="1.3" fill="#fffaf0" transform="rotate(74 176.9 113.9)"/><ellipse cx="101.2" cy="185.9" rx="2.2" ry="1.3" fill="#fffaf0" transform="rotate(94 101.2 185.9)"/><ellipse cx="167.7" cy="128.5" rx="2.2" ry="1.3" fill="#fffaf0" transform="rotate(22 167.7 128.5)"/><ellipse cx="216.6" cy="224.7" rx="2.2" ry="1.3" fill="#fffaf0" transform="rotate(109 216.6 224.7)"/><ellipse cx="251.3" cy="145.5" rx="2.2" ry="1.3" fill="#fffaf0" transform="rotate(105 251.3 145.5)"/><ellipse cx="139.8" cy="195.7" rx="2.2" ry="1.3" fill="#fffaf0" transform="rotate(87 139.8 195.7)"/><ellipse cx="131.4" cy="224.6" rx="2.2" ry="1.3" fill="#fffaf0" transform="rotate(174 131.4 224.6)"/><ellipse cx="208.3" cy="129.6" rx="2.2" ry="1.3" fill="#fffaf0" transform="rotate(73 208.3 129.6)"/><ellipse cx="168.3" cy="160.5" rx="2.2" ry="1.3" fill="#fffaf0" transform="rotate(37 168.3 160.5)"/><ellipse cx="238.6" cy="140.3" rx="2.2" ry="1.3" fill="#fffaf0" transform="rotate(68 238.6 140.3)"/><ellipse cx="212.3" cy="64" rx="2.2" ry="1.3" fill="#fffaf0" transform="rotate(80 212.3 64)"/><ellipse cx="221.1" cy="98.4" rx="2.2" ry="1.3" fill="#fffaf0" transform="rotate(28 221.1 98.4)"/><ellipse cx="344" cy="248" rx="52" ry="52" fill="#000" opacity=".09"/><circle cx="340" cy="240" r="52" fill="#fbfaf6"/><circle cx="340" cy="240" r="43.7" fill="#e6e1d6"/><circle cx="340" cy="240" r="41.6" fill="#fbf7ee"/><ellipse cx="333.6" cy="228.2" rx="4.2" ry="2" fill="#fff" transform="rotate(45 333.6 228.2)"/><ellipse cx="308.9" cy="238.9" rx="4.2" ry="2" fill="#fff" transform="rotate(149 308.9 238.9)"/><ellipse cx="327.7" cy="240.2" rx="4.2" ry="2" fill="#fff" transform="rotate(149 327.7 240.2)"/><ellipse cx="321.9" cy="211.3" rx="4.2" ry="2" fill="#fff" transform="rotate(15 321.9 211.3)"/><ellipse cx="365.4" cy="216.1" rx="4.2" ry="2" fill="#fff" transform="rotate(61 365.4 216.1)"/><ellipse cx="314.7" cy="241.3" rx="4.2" ry="2" fill="#fff" transform="rotate(172 314.7 241.3)"/><ellipse cx="339.5" cy="268.7" rx="4.2" ry="2" fill="#fff" transform="rotate(113 339.5 268.7)"/><ellipse cx="322" cy="209" rx="4.2" ry="2" fill="#fff" transform="rotate(49 322 209)"/><ellipse cx="359.1" cy="266" rx="4.2" ry="2" fill="#fff" transform="rotate(47 359.1 266)"/><ellipse cx="315.8" cy="231.6" rx="4.2" ry="2" fill="#fff" transform="rotate(98 315.8 231.6)"/><ellipse cx="332.5" cy="263.2" rx="4.2" ry="2" fill="#fff" transform="rotate(159 332.5 263.2)"/><ellipse cx="313.1" cy="227.3" rx="4.2" ry="2" fill="#fff" transform="rotate(173 313.1 227.3)"/><ellipse cx="325.6" cy="235.8" rx="4.2" ry="2" fill="#fff" transform="rotate(105 325.6 235.8)"/><ellipse cx="323.3" cy="224.8" rx="4.2" ry="2" fill="#fff" transform="rotate(176 323.3 224.8)"/><ellipse cx="334.9" cy="232.4" rx="4.2" ry="2" fill="#fff" transform="rotate(2 334.9 232.4)"/><ellipse cx="322.4" cy="232.2" rx="4.2" ry="2" fill="#fff" transform="rotate(116 322.4 232.2)"/><ellipse cx="357" cy="255.5" rx="4.2" ry="2" fill="#fff" transform="rotate(54 357 255.5)"/><ellipse cx="326.2" cy="249.5" rx="4.2" ry="2" fill="#fff" transform="rotate(109 326.2 249.5)"/><ellipse cx="345.2" cy="219" rx="4.2" ry="2" fill="#fff" transform="rotate(106 345.2 219)"/><ellipse cx="333.2" cy="206.9" rx="4.2" ry="2" fill="#fff" transform="rotate(47 333.2 206.9)"/><ellipse cx="331" cy="214" rx="4.2" ry="2" fill="#fff" transform="rotate(103 331 214)"/><ellipse cx="333.1" cy="253.7" rx="4.2" ry="2" fill="#fff" transform="rotate(101 333.1 253.7)"/><ellipse cx="320.9" cy="212.7" rx="4.2" ry="2" fill="#fff" transform="rotate(33 320.9 212.7)"/><ellipse cx="304.9" cy="243.4" rx="4.2" ry="2" fill="#fff" transform="rotate(95 304.9 243.4)"/><ellipse cx="319.4" cy="231.7" rx="4.2" ry="2" fill="#fff" transform="rotate(118 319.4 231.7)"/><ellipse cx="340.5" cy="213.8" rx="4.2" ry="2" fill="#fff" transform="rotate(32 340.5 213.8)"/><ellipse cx="331.4" cy="231.9" rx="4.2" ry="2" fill="#fff" transform="rotate(144 331.4 231.9)"/><ellipse cx="357.4" cy="212" rx="4.2" ry="2" fill="#fff" transform="rotate(106 357.4 212)"/><ellipse cx="366.2" cy="236.3" rx="4.2" ry="2" fill="#fff" transform="rotate(138 366.2 236.3)"/><ellipse cx="369.3" cy="227" rx="4.2" ry="2" fill="#fff" transform="rotate(109 369.3 227)"/></svg>
