<svg xmlns="http://www.w3.org/2000/svg" viewBox="0 0 400 300" width="400" height="300"><title>Slices of glazed meatloaf with mashed potatoes</title><rect width="400" height="300" fill="#efdcc9"/><ellipse cx="189" cy="158" rx="118" ry="118" fill="#000" opacity=".09"/><circle cx="185" cy="150" r="118" fill="#fbfaf6"/><circle cx="185" cy="150" r="94.4" fill="#efece4"/><ellipse cx="135" cy="190" rx="56" ry="44" fill="#efdca6"/><ellipse cx="131" cy="186" rx="48" ry="36" fill="#f8ecc4"/><path d="M111 184c10-14 36-14 44 0s-22 16-28 6" fill="none" stroke="#e8d499" stroke-width="5" stroke-linecap="round"/><rect x="125" y="170" width="20" height="14" rx="3" fill="#fbe6a2"/><g transform="translate(215 125) rotate(-8)"><rect x="-58" y="-38" width="28" height="76" rx="6" fill="#6b3421"/><rect x="-55" y="-34" width="22" height="68" rx="5" fill="#9a5634"/><rect x="-28" y="-38" width="28" height="76" rx="6" fill="#6b3421"/><rect x="-25" y="-34" width="22" height="68" rx="5" fill="#9a5634"/><rect x="2" y="-38" width="28" height="76" rx="6" fill="#6b3421"/><rect x="5" y="-34" width="22" height="68" rx="5" fill="#9a5634"/><rect x="32" y="-38" width="28" height="76" rx="6" fill="#6b3421"/><rect x="35" y="-34" width="22" height="68" rx="5" fill="#9a5634"/><path d="M-58-38h118" stroke="#c2301f" stroke-width="8" stroke-linecap="round"/></g><ellipse cx="197.2" cy="183.5" rx="3.5" ry="1.6" fill="#3f8a3c" transform="rotate(153 197.2 183.5)"/><ellipse cx="156.1" cy="120.9" rx="3.5" ry="1.6" fill="#3f8a3c" transform="rotate(66 156.1 120.9)"/><ellipse cx="186.1" cy="187.5" rx="3.5" ry="1.6" fill="#3f8a3c" transform="rotate(46 186.1 187.5)"/><ellipse cx="225.1" cy="105.9" rx="3.5" ry="1.6" fill="#3f8a3c" transform="rotate(108 225.1 105.9)"/><ellipse cx="161.4" cy="193.3" rx="3.5" ry="1.6" fill="#3f8a3c" transform="rotate(76 161.4 193.3)"/><ellipse cx="147.4" cy="93.6" rx="3.5" ry="1.6" fill="#3f8a3c" transform="rotate(56 147.4 93.6)"/><ellipse cx="171.3" cy="182.6" rx="3.5" ry="1.6" fill="#3f8a3c" transform="rotate(118 171.3 182.6)"/><ellipse cx="251" cy="127" rx="3.5" ry="1.6" fill="#3f8a3c" transform="rotate(135 251 127)"/></svg>
