<svg xmlns="http://www.w3.org/2000/svg" viewBox="0 0 400 300" width="400" height="300"><title>A bowl of beef chili with cheddar, sour cream and green onion</title><rect width="400" height="300" fill="#f2d9cc"/><ellipse cx="189" cy="158" rx="115" ry="115" fill="#000" opacity=".09"/><circle cx="185" cy="150" r="115" fill="#fbfaf6"/><circle cx="185" cy="150" r="96.6" fill="#e6e1d6"/><circle cx="185" cy="150" r="92" fill="#8a2f1c"/><path d="M150 150c8-20 40-20 45 0s-26 20-32 6 8-14 18-8" fill="none" stroke="#f7efe0" stroke-width="6" stroke-linecap="round"/><circle cx="157" cy="224" r="4.5" fill="#5a2418"/><circle cx="125" cy="192" r="6.2" fill="#5a2418"/><circle cx="176.4" cy="224.8" r="3.3" fill="#5a2418"/><circle cx="116.7" cy="145" r="3.8" fill="#5a2418"/><circle cx="143.5" cy="135" r="5.4" fill="#5a2418"/><circle cx="252.9" cy="141.8" r="3.4" fill="#5a2418"/><circle cx="206.6" cy="199.3" r="5.8" fill="#5a2418"/><circle cx="231" cy="207.6" r="5.7" fill="#5a2418"/><circle cx="163.9" cy="141.3" r="5.8" fill="#5a2418"/><circle cx="215.3" cy="176.1" r="4.6" fill="#5a2418"/><circle cx="227.3" cy="133.3" r="6.4" fill="#5a2418"/><circle cx="169.4" cy="228.8" r="6.4" fill="#5a2418"/><circle cx="144.5" cy="91.4" r="6.9" fill="#5a2418"/><circle cx="227.3" cy="196.6" r="3.8" fill="#5a2418"/><circle cx="236.1" cy="156.9" r="3.5" fill="#5a2418"/><circle cx="128.8" cy="187.9" r="5.4" fill="#5a2418"/><circle cx="262.7" cy="130.8" r="3.7" fill="#5a2418"/><circle cx="229.6" cy="97.4" r="3.9" fill="#5a2418"/><circle cx="140.7" cy="177.6" r="4.6" fill="#5a2418"/><circle cx="209.8" cy="158.6" r="5.4" fill="#5a2418"/><circle cx="230.8" cy="157.9" r="5.8" fill="#5a2418"/><circle cx="115" cy="137.4" r="4.1" fill="#5a2418"/><circle cx="186.4" cy="195.8" r="5.3" fill="#5a2418"/><circle cx="140" cy="125" r="4" fill="#5a2418"/><circle cx="200.6" cy="166" r="5.5" fill="#5a2418"/><circle cx="183.4" cy="189.4" r="3.8" fill="#5a2418"/><circle cx="194.1" cy="188.8" r="5.3" fill="#5a2418"/><circle cx="161.5" cy="109.9" r="5.5" fill="#5a2418"/><circle cx="245.3" cy="126.5" r="5" fill="#5a2418"/><circle cx="223.1" cy="121.8" r="4.3" fill="#5a2418"/><ellipse cx="237.9" cy="125" rx="8" ry="5" fill="#6d1f1f" transform="rotate(1 237.9 125)"/><ellipse cx="224.8" cy="115" rx="8" ry="5" fill="#6d1f1f" transform="rotate(7 224.8 115)"/><ellipse cx="167.4" cy="224.3" rx="8" ry="5" fill="#6d1f1f" transform="rotate(131 167.4 224.3)"/><ellipse cx="219.7" cy="171.1" rx="8" ry="5" fill="#6d1f1f" transform="rotate(156 219.7 171.1)"/><ellipse cx="226.1" cy="161.9" rx="8" ry="5" fill="#6d1f1f" transform="rotate(69 226.1 161.9)"/><ellipse cx="176.1" cy="185.4" rx="8" ry="5" fill="#6d1f1f" transform="rotate(174 176.1 185.4)"/><ellipse cx="234.2" cy="91.2" rx="8" ry="5" fill="#6d1f1f" transform="rotate(133 234.2 91.2)"/><ellipse cx="142.7" cy="155.6" rx="8" ry="5" fill="#6d1f1f" transform="rotate(8 142.7 155.6)"/><ellipse cx="220.7" cy="96.7" rx="8" ry="5" fill="#6d1f1f" transform="rotate(120 220.7 96.7)"/><ellipse cx="159.4" cy="73.7" rx="8" ry="5" fill="#6d1f1f" transform="rotate(55 159.4 73.7)"/><ellipse cx="209.2" cy="100.8" rx="8" ry="5" fill="#6d1f1f" transform="rotate(168 209.2 100.8)"/><ellipse cx="143" cy="173.4" rx="8" ry="5" fill="#6d1f1f" transform="rotate(147 143 173.4)"/><ellipse cx="125.9" cy="160.8" rx="8" ry="5" fill="#6d1f1f" transform="rotate(60 125.9 160.8)"/><ellipse cx="164.8" cy="106.5" rx="8" ry="5" fill="#6d1f1f" transform="rotate(145 164.8 106.5)"/><ellipse cx="197" cy="205.5" rx="8" ry="5" fill="#6d1f1f" transform="rotate(142 197 205.5)"/><ellipse cx="240.6" cy="181" rx="8" ry="5" fill="#6d1f1f" transform="rotate(177 240.6 181)"/><rect x="141.3" y="85.3" width="12" height="3.5" rx="3" fill="#f0a93a" transform="rotate(9 141.3 88.3)"/><rect x="173.6" y="138.3" width="12" height="3.5" rx="3" fill="#f0a93a" transform="rotate(123 173.6 141.3)"/><rect x="244.6" y="125.5" width="12" height="3.5" rx="3" fill="#f0a93a" transform="rotate(159 244.6 128.5)"/><rect x="180.3" y="123" width="12" height="3.5" rx="3" fill="#f0a93a" transform="rotate(116 180.3 126)"/><rect x="235.2" y="179.7" width="12" height="3.5" rx="3" fill="#f0a93a" transform="rotate(94 235.2 182.7)"/><rect x="178.7" y="172.3" width="12" height="3.5" rx="3" fill="#f0a93a" transform="rotate(34 178.7 175.3)"/><rect x="261.3" y="178.8" width="12" height="3.5" rx="3" fill="#f0a93a" transform="rotate(32 261.3 181.8)"/><rect x="203.8" y="171.7" width="12" height="3.5" rx="3" fill="#f0a93a" transform="rotate(146 203.8 174.7)"/><rect x="209.3" y="200.4" width="12" height="3.5" rx="3" fill="#f0a93a" transform="rotate(27 209.3 203.4)"/><rect x="231.9" y="98.7" width="12" height="3.5" rx="3" fill="#f0a93a" transform="rotate(5 231.9 101.7)"/><rect x="222.4" y="141.1" width="12" height="3.5" rx="3" fill="#f0a93a" transform="rotate(107 222.4 144.1)"/><rect x="242.1" y="117.9" width="12" height="3.5" rx="3" fill="#f0a93a" transform="rotate(107 242.1 120.9)"/><rect x="120.7" y="198.8" width="12" height="3.5" rx="3" fill="#f0a93a" transform="rotate(149 120.7 201.8)"/><rect x="210.7" y="81.3" width="12" height="3.5" rx="3" fill="#f0a93a" transform="rotate(158 210.7 84.3)"/><rect x="200.3" y="193" width="12" height="3.5" rx="3" fill="#f0a93a" transform="rotate(144 200.3 196)"/><rect x="129.7" y="136.7" width="12" height="3.5" rx="3" fill="#f0a93a" transform="rotate(56 129.7 139.7)"/><circle cx="150.9" cy="127" r="4" fill="none" stroke="#5aa54a" stroke-width="2.5"/><circle cx="253.4" cy="127.7" r="4" fill="none" stroke="#5aa54a" stroke-width="2.5"/><circle cx="109.5" cy="129.7" r="4" fill="none" stroke="#5aa54a" stroke-width="2.5"/><circle cx="201.1" cy="76.3" r="4" fill="none" stroke="#5aa54a" stroke-width="2.5"/><circle cx="244.6" cy="169.1" r="4" fill="none" stroke="#5aa54a" stroke-width="2.5"/><circle cx="174.6" cy="132.6" r="4" fill="none" stroke="#5aa54a" stroke-width="2.5"/><circle cx="214.2" cy="102.1" r="4" fill="none" stroke="#5aa54a" stroke-width="2.5"/><circle cx="234" cy="184" r="4" fill="none" stroke="#5aa54a" stroke-width="2.5"/><circle cx="242.9" cy="100.8" r="4" fill="none" stroke="#5aa54a" stroke-width="2.5"/><circle cx="127.4" cy="114.7" r="4" fill="none" stroke="#5aa54a" stroke-width="2.5"/><path d="M333.8 224.2L345.8 244.2L321.8 244.2Z" fill="#e8b34f" transform="rotate(24 333.8 236.2)"/><path d="M347.3 211.9L359.3 231.9L335.3 231.9Z" fill="#e8b34f" transform="rotate(111 347.3 223.9)"/><path d="M336.7 250.3L348.7 270.3L324.7 270.3Z" fill="#e8b34f" transform="rotate(133 336.7 262.3)"/><path d="M326.3 191.5L338.3 211.5L314.3 211.5Z" fill="#e8b34f" transform="rotate(54 326.3 203.5)"/><path d="M342 241.7L354 261.7L330 261.7Z" fill="#e8b34f" transform="rotate(51 342 253.7)"/><path d="M317 211.8L329 231.8L305 231.8Z" fill="#e8b34f" transform="rotate(140 317 223.8)"/><path d="M306.7 233.9L318.7 253.9L294.7 253.9Z" fill="#e8b34f" transform="rotate(136 306.7 245.9)"/><path d="M351.7 232.6L363.7 252.6L339.7 252.6Z" fill="#e8b34f" transform="rotate(55 351.7 244.6)"/><path d="M360.7 244.10000000000002L372.7 264.1L348.7 264.1Z" fill="#e8b34f" transform="rotate(37 360.7 256.1)"/></svg>
