<svg xmlns="http://www.w3.org/2000/svg" viewBox="0 0 400 300" width="400" height="300"><title>An English muffin sandwich with sausage, egg and cheese</title><rect width="400" height="300" fill="#f6e7c8"/><ellipse cx="190" cy="262" rx="130" ry="14" fill="#000" opacity=".1"/><path d="M85 245h210a12 12 0 0 0 0-8H85a12 12 0 0 0 0 8Z" fill="#c98a3e"/><rect x="85" y="222" width="210" height="26" rx="12" fill="#e6c080"/><rect x="80" y="202" width="220" height="20" rx="10" fill="#8a4a2c"/><path d="M78 202q12-8 24 0t24 0 24 0 24 0 24 0 24 0 24 0 24 0 24 0" fill="#f6c945"/><rect x="80" y="182" width="220" height="12" rx="6" fill="#fffdf6"/><path d="M85 182C85 92 295 92 295 182Z" fill="#e6c080"/><path d="M110 164C130 118 250 118 270 164" fill="none" stroke="#e8b466" stroke-width="10" stroke-linecap="round"/></svg>
