<svg xmlns="http://www.w3.org/2000/svg" viewBox="0 0 400 300" width="400" height="300"><title>A bowl of creamy macaroni and cheese</title><rect width="400" height="300" fill="#f6e7c8"/><ellipse cx="189" cy="158" rx="115" ry="115" fill="#000" opacity=".09"/><circle cx="185" cy="150" r="115" fill="#fbfaf6"/><circle cx="185" cy="150" r="96.6" fill="#e6e1d6"/><circle cx="185" cy="150" r="92" fill="#eea62a"/><g transform="rotate(20 260.3 130.3)"><rect x="247.3" y="124.30000000000001" width="26" height="12" rx="3" fill="#fbd66a"/><rect x="247.3" y="128.3" width="26" height="3" fill="#d88a2e"/></g><g transform="rotate(81 249.3 144.1)"><rect x="236.3" y="138.1" width="26" height="12" rx="3" fill="#fbd66a"/><rect x="236.3" y="142.1" width="26" height="3" fill="#d88a2e"/></g><g transform="rotate(3 210.5 217.4)"><rect x="197.5" y="211.4" width="26" height="12" rx="3" fill="#fbd66a"/><rect x="197.5" y="215.4" width="26" height="3" fill="#d88a2e"/></g><g transform="rotate(49 107.7 125.8)"><rect x="94.7" y="119.8" width="26" height="12" rx="3" fill="#fbd66a"/><rect x="94.7" y="123.8" width="26" height="3" fill="#d88a2e"/></g><g transform="rotate(25 199.2 96.7)"><rect x="186.2" y="90.7" width="26" height="12" rx="3" fill="#fbd66a"/><rect x="186.2" y="94.7" width="26" height="3" fill="#d88a2e"/></g><g transform="rotate(175 241.8 125.3)"><rect x="228.8" y="119.3" width="26" height="12" rx="3" fill="#fbd66a"/><rect x="228.8" y="123.3" width="26" height="3" fill="#d88a2e"/></g><g transform="rotate(116 224.4 207.3)"><rect x="211.4" y="201.3" width="26" height="12" rx="3" fill="#fbd66a"/><rect x="211.4" y="205.3" width="26" height="3" fill="#d88a2e"/></g><g transform="rotate(68 248.9 174.9)"><rect x="235.9" y="168.9" width="26" height="12" rx="3" fill="#fbd66a"/><rect x="235.9" y="172.9" width="26" height="3" fill="#d88a2e"/></g><g transform="rotate(158 230.7 87.3)"><rect x="217.7" y="81.3" width="26" height="12" rx="3" fill="#fbd66a"/><rect x="217.7" y="85.3" width="26" height="3" fill="#d88a2e"/></g><g transform="rotate(85 216.9 82.7)"><rect x="203.9" y="76.7" width="26" height="12" rx="3" fill="#fbd66a"/><rect x="203.9" y="80.7" width="26" height="3" fill="#d88a2e"/></g><g transform="rotate(125 172.6 68.5)"><rect x="159.6" y="62.5" width="26" height="12" rx="3" fill="#fbd66a"/><rect x="159.6" y="66.5" width="26" height="3" fill="#d88a2e"/></g><g transform="rotate(167 202 186.6)"><rect x="189" y="180.6" width="26" height="12" rx="3" fill="#fbd66a"/><rect x="189" y="184.6" width="26" height="3" fill="#d88a2e"/></g><g transform="rotate(19 187.9 147.2)"><rect x="174.9" y="141.2" width="26" height="12" rx="3" fill="#fbd66a"/><rect x="174.9" y="145.2" width="26" height="3" fill="#d88a2e"/></g><g transform="rotate(77 186.9 227.9)"><rect x="173.9" y="221.9" width="26" height="12" rx="3" fill="#fbd66a"/><rect x="173.9" y="225.9" width="26" height="3" fill="#d88a2e"/></g><g transform="rotate(63 201.1 144.3)"><rect x="188.1" y="138.3" width="26" height="12" rx="3" fill="#fbd66a"/><rect x="188.1" y="142.3" width="26" height="3" fill="#d88a2e"/></g><g transform="rotate(37 163 187.7)"><rect x="150" y="181.7" width="26" height="12" rx="3" fill="#fbd66a"/><rect x="150" y="185.7" width="26" height="3" fill="#d88a2e"/></g><g transform="rotate(146 112.4 112.4)"><rect x="99.4" y="106.4" width="26" height="12" rx="3" fill="#fbd66a"/><rect x="99.4" y="110.4" width="26" height="3" fill="#d88a2e"/></g><g transform="rotate(119 150.6 83.3)"><rect x="137.6" y="77.3" width="26" height="12" rx="3" fill="#fbd66a"/><rect x="137.6" y="81.3" width="26" height="3" fill="#d88a2e"/></g><g transform="rotate(56 211 221.6)"><rect x="198" y="215.6" width="26" height="12" rx="3" fill="#fbd66a"/><rect x="198" y="219.6" width="26" height="3" fill="#d88a2e"/></g><g transform="rotate(138 254.6 183.9)"><rect x="241.6" y="177.9" width="26" height="12" rx="3" fill="#fbd66a"/><rect x="241.6" y="181.9" width="26" height="3" fill="#d88a2e"/></g><g transform="rotate(116 160.1 102.6)"><rect x="147.1" y="96.6" width="26" height="12" rx="3" fill="#fbd66a"/><rect x="147.1" y="100.6" width="26" height="3" fill="#d88a2e"/></g><g transform="rotate(165 107.3 151.8)"><rect x="94.3" y="145.8" width="26" height="12" rx="3" fill="#fbd66a"/><rect x="94.3" y="149.8" width="26" height="3" fill="#d88a2e"/></g><g transform="rotate(76 118.8 118.4)"><rect x="105.8" y="112.4" width="26" height="12" rx="3" fill="#fbd66a"/><rect x="105.8" y="116.4" width="26" height="3" fill="#d88a2e"/></g><g transform="rotate(53 262.3 158.9)"><rect x="249.3" y="152.9" width="26" height="12" rx="3" fill="#fbd66a"/><rect x="249.3" y="156.9" width="26" height="3" fill="#d88a2e"/></g><g transform="rotate(24 190 175.7)"><rect x="177" y="169.7" width="26" height="12" rx="3" fill="#fbd66a"/><rect x="177" y="173.7" width="26" height="3" fill="#d88a2e"/></g><g transform="rotate(89 251.3 107.7)"><rect x="238.3" y="101.7" width="26" height="12" rx="3" fill="#fbd66a"/><rect x="238.3" y="105.7" width="26" height="3" fill="#d88a2e"/></g><g transform="rotate(52 219.2 218.4)"><rect x="206.2" y="212.4" width="26" height="12" rx="3" fill="#fbd66a"/><rect x="206.2" y="216.4" width="26" height="3" fill="#d88a2e"/></g><g transform="rotate(87 215.8 101.4)"><rect x="202.8" y="95.4" width="26" height="12" rx="3" fill="#fbd66a"/><rect x="202.8" y="99.4" width="26" height="3" fill="#d88a2e"/></g><g transform="rotate(164 187 72.2)"><rect x="174" y="66.2" width="26" height="12" rx="3" fill="#fbd66a"/><rect x="174" y="70.2" width="26" height="3" fill="#d88a2e"/></g><g transform="rotate(72 168.1 179.7)"><rect x="155.1" y="173.7" width="26" height="12" rx="3" fill="#fbd66a"/><rect x="155.1" y="177.7" width="26" height="3" fill="#d88a2e"/></g><g transform="rotate(120 137.7 176.8)"><rect x="124.69999999999999" y="170.8" width="26" height="12" rx="3" fill="#fbd66a"/><rect x="124.69999999999999" y="174.8" width="26" height="3" fill="#d88a2e"/></g><g transform="rotate(111 160.1 129)"><rect x="147.1" y="123" width="26" height="12" rx="3" fill="#fbd66a"/><rect x="147.1" y="127" width="26" height="3" fill="#d88a2e"/></g><g transform="rotate(172 144 108.5)"><rect x="131" y="102.5" width="26" height="12" rx="3" fill="#fbd66a"/><rect x="131" y="106.5" width="26" height="3" fill="#d88a2e"/></g><g transform="rotate(34 168.6 118.4)"><rect x="155.6" y="112.4" width="26" height="12" rx="3" fill="#fbd66a"/><rect x="155.6" y="116.4" width="26" height="3" fill="#d88a2e"/></g><rect x="288" y="222" width="84" height="16" rx="8" fill="#c9ccd1" transform="rotate(35 330 230)"/><ellipse cx="290" cy="202" rx="20" ry="14" fill="#c9ccd1" transform="rotate(35 290 202)"/></svg>
