<svg xmlns="http://www.w3.org/2000/svg" viewBox="0 0 400 300" width="400" height="300"><title>A split biscuit filled with strawberries and whipped cream</title><rect width="400" height="300" fill="#f2d9cc"/><ellipse cx="204" cy="178" rx="118" ry="118" fill="#000" opacity=".09"/><circle cx="200" cy="170" r="118" fill="#fbfaf6"/><circle cx="200" cy="170" r="94.4" fill="#efece4"/><rect x="120" y="190" width="160" height="42" rx="18" fill="#c98a3e"/><rect x="126" y="188" width="148" height="30" rx="14" fill="#f1dcb0"/><path d="M110 190C110 160 290 160 290 190Z" fill="#fffaf0"/><g transform="rotate(139 272.8 181.5)"><path d="M263.8 176.5Q272.8 169.5 281.8 176.5L272.8 192.5Z" fill="#d8323f"/><path d="M266.8 173.5l3 3 3-4 3 4 3-3" fill="none" stroke="#4f9a45" stroke-width="3"/></g><g transform="rotate(88 120.6 179.9)"><path d="M111.6 174.9Q120.6 167.9 129.6 174.9L120.6 190.9Z" fill="#d8323f"/><path d="M114.6 171.9l3 3 3-4 3 4 3-3" fill="none" stroke="#4f9a45" stroke-width="3"/></g><g transform="rotate(143 230.2 167)"><path d="M221.2 162Q230.2 155 239.2 162L230.2 178Z" fill="#d8323f"/><path d="M224.2 159l3 3 3-4 3 4 3-3" fill="none" stroke="#4f9a45" stroke-width="3"/></g><g transform="rotate(67 143.4 186)"><path d="M134.4 181Q143.4 174 152.4 181L143.4 197Z" fill="#d8323f"/><path d="M137.4 178l3 3 3-4 3 4 3-3" fill="none" stroke="#4f9a45" stroke-width="3"/></g><g transform="rotate(14 218.7 171)"><path d="M209.7 166Q218.7 159 227.7 166L218.7 182Z" fill="#d8323f"/><path d="M212.7 163l3 3 3-4 3 4 3-3" fill="none" stroke="#4f9a45" stroke-width="3"/></g><g transform="rotate(106 163.6 166.1)"><path d="M154.6 161.1Q163.6 154.1 172.6 161.1L163.6 177.1Z" fill="#d8323f"/><path d="M157.6 158.1l3 3 3-4 3 4 3-3" fill="none" stroke="#4f9a45" stroke-width="3"/></g><g transform="rotate(42 168.5 174.4)"><path d="M159.5 169.4Q168.5 162.4 177.5 169.4L168.5 185.4Z" fill="#d8323f"/><path d="M162.5 166.4l3 3 3-4 3 4 3-3" fill="none" stroke="#4f9a45" stroke-width="3"/></g><g transform="rotate(179 189.5 174.6)"><path d="M180.5 169.6Q189.5 162.6 198.5 169.6L189.5 185.6Z" fill="#d8323f"/><path d="M183.5 166.6l3 3 3-4 3 4 3-3" fill="none" stroke="#4f9a45" stroke-width="3"/></g><g transform="rotate(108 184 168.5)"><path d="M175 163.5Q184 156.5 193 163.5L184 179.5Z" fill="#d8323f"/><path d="M178 160.5l3 3 3-4 3 4 3-3" fill="none" stroke="#4f9a45" stroke-width="3"/></g><path d="M125 150C125 90 275 90 275 150Z" fill="#d99a4a"/><rect x="125" y="140" width="150" height="18" rx="8" fill="#f1dcb0"/><circle cx="243" cy="109.8" r="2" fill="#fffaf0"/><circle cx="231" cy="121" r="2" fill="#fffaf0"/><circle cx="203.8" cy="102" r="2" fill="#fffaf0"/><circle cx="236.7" cy="111.1" r="2" fill="#fffaf0"/><circle cx="169.4" cy="120.4" r="2" fill="#fffaf0"/><circle cx="221.1" cy="109.8" r="2" fill="#fffaf0"/><circle cx="257.5" cy="122.9" r="2" fill="#fffaf0"/><circle cx="190.2" cy="127.5" r="2" fill="#fffaf0"/><circle cx="257.5" cy="112.8" r="2" fill="#fffaf0"/><circle cx="243.7" cy="110.5" r="2" fill="#fffaf0"/><circle cx="202" cy="119.1" r="2" fill="#fffaf0"/><circle cx="142.7" cy="105.9" r="2" fill="#fffaf0"/><circle cx="173" cy="122.7" r="2" fill="#fffaf0"/><circle cx="168.9" cy="132.8" r="2" fill="#fffaf0"/><circle cx="161.7" cy="120.5" r="2" fill="#fffaf0"/><circle cx="186.3" cy="112.7" r="2" fill="#fffaf0"/><circle cx="179.4" cy="131.4" r="2" fill="#fffaf0"/><circle cx="185.8" cy="111.4" r="2" fill="#fffaf0"/><circle cx="167.8" cy="116.3" r="2" fill="#fffaf0"/><circle cx="150.1" cy="135.8" r="2" fill="#fffaf0"/><circle cx="353.5" cy="53.1" r="6" fill="#c2304a"/><circle cx="351.5" cy="51.1" r="1.8" fill="#fff" opacity=".35"/><circle cx="335.6" cy="58.1" r="6" fill="#3b4f9a"/><circle cx="333.6" cy="56.1" r="1.8" fill="#fff" opacity=".35"/><circle cx="358.7" cy="68" r="6" fill="#3b4f9a"/><circle cx="356.7" cy="66" r="1.8" fill="#fff" opacity=".35"/><circle cx="365.3" cy="62" r="6" fill="#c2304a"/><circle cx="363.3" cy="60" r="1.8" fill="#fff" opacity=".35"/><circle cx="362.3" cy="66.4" r="6" fill="#c2304a"/><circle cx="360.3" cy="64.4" r="1.8" fill="#fff" opacity=".35"/><circle cx="357.2" cy="50.9" r="6" fill="#3b4f9a"/><circle cx="355.2" cy="48.9" r="1.8" fill="#fff" opacity=".35"/><circle cx="360.3" cy="89.3" r="6" fill="#c2304a"/><circle cx="358.3" cy="87.3" r="1.8" fill="#fff" opacity=".35"/><circle cx="325.3" cy="47.6" r="6" fill="#c2304a"/><circle cx="323.3" cy="45.6" r="1.8" fill="#fff" opacity=".35"/><circle cx="321.5" cy="66.7" r="6" fill="#c2304a"/><circle cx="319.5" cy="64.7" r="1.8" fill="#fff" opacity=".35"/><circle cx="356.6" cy="51.8" r="6" fill="#c2304a"/><circle cx="354.6" cy="49.8" r="1.8" fill="#fff" opacity=".35"/></svg>
